<svg width="407" height="684" viewBox="0 0 407 684" fill="none" xmlns="http://www.w3.org/2000/svg">
<g clip-path="url(#clip0_3712_1569)">
<line y1="-2.5" x2="58.1766" y2="-2.5" transform="matrix(0.523061 -0.852295 0.851019 0.525134 106.505 263.175)" stroke="#F58071" stroke-width="5"/>
<line y1="-2.5" x2="58.1766" y2="-2.5" transform="matrix(0.523061 -0.852295 0.851019 0.525134 81.1464 175.45)" stroke="#F58071" stroke-width="5"/>
<line y1="-2.5" x2="50.1638" y2="-2.5" transform="matrix(-0.151653 -0.988434 0.988309 -0.152463 152.15 175.45)" stroke="#F58071" stroke-width="5"/>
<line y1="-2.5" x2="64.1694" y2="-2.5" transform="matrix(-0.948424 -0.317005 0.315452 -0.948942 275.137 160.193)" stroke="#F58071" stroke-width="5"/>
<line y1="-2.5" x2="50.3937" y2="-2.5" transform="matrix(-0.754804 -0.65595 0.65391 -0.756572 282.745 509.822)" stroke="#F58071" stroke-width="5"/>
<line y1="-2.5" x2="69.7815" y2="-2.5" transform="matrix(-0.999336 0.0364387 -0.0362408 -0.999343 158.489 622.974)" stroke="#F58071" stroke-width="5"/>
<line y1="-2.5" x2="18.8547" y2="-2.5" transform="matrix(-0.941451 0.337151 -0.335524 -0.942032 218.081 610.26)" stroke="#F58071" stroke-width="5"/>
<line y1="-2.5" x2="52.3248" y2="-2.5" transform="matrix(0.484631 0.874719 -0.873594 0.486656 20.2866 519.993)" stroke="#F58071" stroke-width="5"/>
<mask id="mask0_3712_1569" style="mask-type:luminance" maskUnits="userSpaceOnUse" x="0" y="0" width="406" height="683">
<path d="M299.427 527.894C299.427 510.046 313.883 495.602 331.684 495.602C349.481 495.602 363.929 510.046 363.929 527.894C363.929 545.716 349.481 560.153 331.684 560.153C313.883 560.153 299.427 545.716 299.427 527.894ZM195.948 545.548C195.948 528.776 209.547 515.16 226.3 515.16C243.073 515.16 256.643 528.776 256.643 545.548C256.643 562.313 243.073 575.928 226.3 575.928C209.547 575.928 195.948 562.313 195.948 545.548ZM252.814 579.879C252.814 563.711 265.901 550.605 282.03 550.605C298.149 550.605 311.237 563.711 311.237 579.879C311.237 596.027 298.149 609.13 282.03 609.13C265.901 609.13 252.814 596.027 252.814 579.879ZM210.601 606.658C210.601 594.745 220.253 585.081 232.143 585.081C244.041 585.081 253.663 594.745 253.663 606.658C253.663 618.567 244.041 628.232 232.143 628.232C220.253 628.232 210.601 618.567 210.601 606.658ZM270.22 511.806C270.22 504.617 276.011 498.788 283.191 498.788C290.373 498.788 296.165 504.617 296.165 511.806C296.165 518.966 290.373 524.796 283.191 524.796C276.011 524.796 270.22 518.966 270.22 511.806ZM190.302 333.413C190.302 313.715 206.254 297.744 225.956 297.744C245.631 297.744 261.586 313.715 261.586 333.413C261.586 353.111 245.631 369.091 225.956 369.091C206.254 369.091 190.302 353.111 190.302 333.413ZM133.604 341.147C133.604 330.343 142.348 321.56 153.161 321.56C163.956 321.56 172.728 330.343 172.728 341.147C172.728 351.977 163.956 360.728 153.161 360.728C142.348 360.728 133.604 351.977 133.604 341.147ZM64.9309 339.808C64.9309 332.251 71.0575 326.136 78.6091 326.136C86.1386 326.136 92.2647 332.251 92.2647 339.808C92.2647 347.369 86.1386 353.512 78.6091 353.512C71.0575 353.512 64.9309 347.369 64.9309 339.808ZM80.0344 377.758C80.0344 361.61 93.1165 348.512 109.274 348.512C125.399 348.512 138.49 361.61 138.49 377.758C138.49 393.934 125.399 407.009 109.274 407.009C93.1165 407.009 80.0344 393.934 80.0344 377.758ZM152.625 388.761C152.625 372.613 165.716 359.507 181.841 359.507C197.961 359.507 211.052 372.613 211.052 388.761C211.052 404.928 197.961 418.003 181.841 418.003C165.716 418.003 152.625 404.928 152.625 388.761ZM112.485 553.306C112.485 536.533 126.054 522.949 142.799 522.949C159.552 522.949 173.12 536.533 173.12 553.306C173.12 570.078 159.552 583.662 142.799 583.662C126.054 583.662 112.485 570.078 112.485 553.306ZM24.3331 576.787C24.3331 560.414 37.5885 547.135 53.9412 547.135C70.2654 547.135 83.5237 560.414 83.5237 576.787C83.5237 593.131 70.2654 606.402 53.9412 606.402C37.5885 606.402 24.3331 593.131 24.3331 576.787ZM140.531 622.206C140.531 603.901 155.35 589.032 173.636 589.032C191.946 589.032 206.762 603.901 206.762 622.206C206.762 640.508 191.946 655.346 173.636 655.346C155.35 655.346 140.531 640.508 140.531 622.206ZM68.8204 624.136C68.8204 607.968 81.908 594.89 98.0281 594.89C114.185 594.89 127.244 607.968 127.244 624.136C127.244 640.284 114.185 653.387 98.0281 653.387C81.908 653.387 68.8204 640.284 68.8204 624.136ZM43.2068 666.806C43.2068 658.307 50.0829 651.423 58.5715 651.423C67.0602 651.423 73.9279 658.307 73.9279 666.806C73.9279 675.305 67.0602 682.181 58.5715 682.181C50.0829 682.181 43.2068 675.305 43.2068 666.806ZM161.202 138.167C161.202 117.364 178.062 100.483 198.87 100.483C219.656 100.483 236.518 117.364 236.518 138.167C236.518 159.008 219.656 175.861 198.87 175.861C178.062 175.861 161.202 159.008 161.202 138.167ZM195.665 208.068C195.665 190.386 209.976 176.028 227.657 176.028C245.319 176.028 259.659 190.386 259.659 208.068C259.659 225.742 245.319 240.099 227.657 240.099C209.976 240.099 195.665 225.742 195.665 208.068ZM207.898 76.2369C207.898 60.0887 220.986 46.985 237.114 46.985C253.27 46.985 266.352 60.0887 266.352 76.2369C266.352 92.3757 253.27 105.482 237.114 105.482C220.986 105.482 207.898 92.3757 207.898 76.2369ZM216.074 20.5192C216.074 9.18378 225.247 0 236.577 0C247.871 0 257.044 9.18378 257.044 20.5192C257.044 31.8351 247.871 41.0189 236.577 41.0189C225.247 41.0189 216.074 31.8351 216.074 20.5192ZM256.956 165.659C256.956 146.754 272.289 131.408 291.194 131.408C310.077 131.408 325.404 146.754 325.404 165.659C325.404 184.587 310.077 199.939 291.194 199.939C272.289 199.939 256.956 184.587 256.956 165.659ZM263.911 106.565C263.911 95.7898 272.633 87.063 283.39 87.063C294.152 87.063 302.865 95.7898 302.865 106.565C302.865 117.335 294.152 126.058 283.39 126.058C272.633 126.058 263.911 117.335 263.911 106.565ZM171.819 43.3467C171.819 32.0024 180.984 22.8274 192.314 22.8274C203.616 22.8274 212.809 32.0024 212.809 43.3467C212.809 54.6909 203.616 63.8667 192.314 63.8667C180.984 63.8667 171.819 54.6909 171.819 43.3467ZM157.988 81.6368C157.988 73.5081 164.58 66.8792 172.728 66.8792C180.845 66.8792 187.431 73.5081 187.431 81.6368C187.431 89.7633 180.845 96.3865 172.728 96.3865C164.58 96.3865 157.988 89.7633 157.988 81.6368ZM293.323 383.528C293.323 366.959 306.726 353.54 323.275 353.54C339.829 353.54 353.232 366.959 353.232 383.528C353.232 400.096 339.829 413.515 323.275 413.515C306.726 413.515 293.323 400.096 293.323 383.528ZM243.445 382.078C243.445 371.194 252.246 362.352 263.119 362.352C274.021 362.352 282.822 371.194 282.822 382.078C282.822 392.965 274.021 401.807 263.119 401.807C252.246 401.807 243.445 392.965 243.445 382.078ZM352.804 408.311C352.804 399.391 360.043 392.115 368.988 392.115C377.929 392.115 385.168 399.391 385.168 408.311C385.168 417.27 377.929 424.515 368.988 424.515C360.043 424.515 352.804 417.27 352.804 408.311ZM197.141 460.782C197.141 444.497 210.339 431.283 226.613 431.283C242.877 431.283 256.076 444.497 256.076 460.782C256.076 477.097 242.877 490.289 226.613 490.289C210.339 490.289 197.141 477.097 197.141 460.782ZM262.267 462.601C262.267 445.262 276.323 431.195 293.664 431.195C310.985 431.195 325.04 445.262 325.04 462.601C325.04 479.971 310.985 494.044 293.664 494.044C276.323 494.044 262.267 479.971 262.267 462.601ZM346.728 465.077C346.728 448.821 359.875 435.658 376.14 435.658C392.376 435.658 405.524 448.821 405.524 465.077C405.524 481.332 392.376 494.524 376.14 494.524C359.875 494.524 346.728 481.332 346.728 465.077ZM327.25 432.79C327.25 425.624 333.072 419.794 340.252 419.794C347.412 419.794 353.232 425.624 353.232 432.79C353.232 439.978 347.412 445.808 340.252 445.808C333.072 445.808 327.25 439.978 327.25 432.79ZM286.339 340.946C286.339 333.757 292.159 327.927 299.348 327.927C306.499 327.927 312.322 333.757 312.322 340.946C312.322 348.111 306.499 353.941 299.348 353.941C292.159 353.941 286.339 348.111 286.339 340.946ZM167.845 232.371C167.845 224.608 174.116 218.355 181.841 218.355C189.56 218.355 195.832 224.608 195.832 232.371C195.832 240.099 189.56 246.378 181.841 246.378C174.116 246.378 167.845 240.099 167.845 232.371ZM5.1386 248.686C5.1386 231.629 18.9333 217.789 35.9674 217.789C53.0043 217.789 66.8274 231.629 66.8274 248.686C66.8274 265.741 53.0043 279.552 35.9674 279.552C18.9333 279.552 5.1386 265.741 5.1386 248.686ZM61.3254 285.723C61.3254 269.575 74.4076 256.472 90.5357 256.472C106.693 256.472 119.752 269.575 119.752 285.723C119.752 301.891 106.693 314.969 90.5357 314.969C74.4076 314.969 61.3254 301.891 61.3254 285.723ZM202.251 270.624C202.251 262.839 208.55 256.528 216.335 256.528C224.111 256.528 230.414 262.839 230.414 270.624C230.414 278.418 224.111 284.725 216.335 284.725C208.55 284.725 202.251 278.418 202.251 270.624ZM139.85 288.815C139.85 272.676 152.938 259.57 169.066 259.57C185.214 259.57 198.274 272.676 198.274 288.815C198.274 304.964 185.214 318.067 169.066 318.067C152.938 318.067 139.85 304.964 139.85 288.815ZM22.9363 315.426C22.9363 307.18 29.5796 300.501 37.8156 300.501C46.0487 300.501 52.7204 307.18 52.7204 315.426C52.7204 323.641 46.0487 330.32 37.8156 330.32C29.5796 330.32 22.9363 323.641 22.9363 315.426ZM130.393 441.886C130.393 434.208 136.585 428.009 144.224 428.009C151.884 428.009 158.076 434.208 158.076 441.886C158.076 449.526 151.884 455.725 144.224 455.725C136.585 455.725 130.393 449.526 130.393 441.886ZM90.0277 459.989C90.0277 449.213 98.7404 440.49 109.498 440.49C120.261 440.49 128.976 449.213 128.976 459.989C128.976 470.759 120.261 479.491 109.498 479.491C98.7404 479.491 90.0277 470.759 90.0277 459.989ZM142.319 494.467C142.319 478.32 155.379 465.222 171.536 465.222C187.655 465.222 200.746 478.32 200.746 494.467C200.746 510.644 187.655 523.748 171.536 523.748C155.379 523.748 142.319 510.644 142.319 494.467ZM42.27 504.334C42.27 486.907 56.4139 472.754 73.8116 472.754C91.2487 472.754 105.384 486.907 105.384 504.334C105.384 521.783 91.2487 535.907 73.8116 535.907C56.4139 535.907 42.27 521.783 42.27 504.334ZM5.45089 511.181C5.45089 502.514 12.4945 495.462 21.179 495.462C29.8351 495.462 36.8759 502.514 36.8759 511.181C36.8759 519.876 29.8351 526.928 21.179 526.928C12.4945 526.928 5.45089 519.876 5.45089 511.181ZM16.3527 139.733C16.3527 128.105 25.7782 118.674 37.3925 118.674C49.0296 118.674 58.4552 128.105 58.4552 139.733C58.4552 151.39 49.0296 160.798 37.3925 160.798C25.7782 160.798 16.3527 151.39 16.3527 139.733ZM40.5694 186.608C40.5694 169.406 54.4805 155.48 71.6537 155.48C88.8067 155.48 102.746 169.406 102.746 186.608C102.746 203.773 88.8067 217.701 71.6537 217.701C54.4805 217.701 40.5694 203.773 40.5694 186.608ZM99.6489 105.255C99.6489 89.1099 112.74 76.0033 128.86 76.0033C144.985 76.0033 158.076 89.1099 158.076 105.255C158.076 121.431 144.985 134.501 128.86 134.501C112.74 134.501 99.6489 121.431 99.6489 105.255ZM118.046 190.298C118.046 173.954 131.273 160.71 147.603 160.71C163.927 160.71 177.154 173.954 177.154 190.298C177.154 206.641 163.927 219.892 147.603 219.892C131.273 219.892 118.046 206.641 118.046 190.298ZM107.913 56.8455C107.913 49.3731 113.989 43.3183 121.424 43.3183C128.888 43.3183 134.935 49.3731 134.935 56.8455C134.935 64.3236 128.888 70.3785 121.424 70.3785C113.989 70.3785 107.913 64.3236 107.913 56.8455ZM0 173.416C0 165.659 6.27137 159.343 14.0559 159.343C21.8036 159.343 28.0749 165.659 28.0749 173.416C28.0749 181.173 21.8036 187.46 14.0559 187.46C6.27137 187.46 0 181.173 0 173.416Z" fill="white"/>
</mask>
<g mask="url(#mask0_3712_1569)">
<path d="M299.427 527.894C299.427 510.046 313.884 495.602 331.684 495.602C349.481 495.602 363.929 510.046 363.929 527.894C363.929 545.716 349.481 560.153 331.684 560.153C313.884 560.153 299.427 545.716 299.427 527.894ZM195.948 545.548C195.948 528.776 209.547 515.16 226.3 515.16C243.073 515.16 256.643 528.776 256.643 545.548C256.643 562.313 243.073 575.928 226.3 575.928C209.547 575.928 195.948 562.313 195.948 545.548ZM252.814 579.879C252.814 563.711 265.901 550.605 282.03 550.605C298.149 550.605 311.237 563.711 311.237 579.879C311.237 596.027 298.149 609.13 282.03 609.13C265.901 609.13 252.814 596.027 252.814 579.879ZM210.601 606.658C210.601 594.745 220.253 585.081 232.143 585.081C244.041 585.081 253.663 594.745 253.663 606.658C253.663 618.567 244.041 628.232 232.143 628.232C220.253 628.232 210.601 618.567 210.601 606.658ZM270.22 511.806C270.22 504.617 276.011 498.788 283.191 498.788C290.373 498.788 296.165 504.617 296.165 511.806C296.165 518.966 290.373 524.796 283.191 524.796C276.011 524.796 270.22 518.966 270.22 511.806ZM190.302 333.413C190.302 313.715 206.254 297.744 225.956 297.744C245.631 297.744 261.586 313.715 261.586 333.413C261.586 353.111 245.631 369.091 225.956 369.091C206.254 369.091 190.302 353.111 190.302 333.413ZM133.604 341.147C133.604 330.343 142.348 321.56 153.161 321.56C163.956 321.56 172.728 330.343 172.728 341.147C172.728 351.977 163.956 360.729 153.161 360.729C142.348 360.729 133.604 351.977 133.604 341.147ZM64.9309 339.808C64.9309 332.251 71.0575 326.136 78.6091 326.136C86.1386 326.136 92.2647 332.251 92.2647 339.808C92.2647 347.369 86.1386 353.512 78.6091 353.512C71.0575 353.512 64.9309 347.369 64.9309 339.808ZM80.0344 377.758C80.0344 361.61 93.1165 348.512 109.274 348.512C125.399 348.512 138.49 361.61 138.49 377.758C138.49 393.934 125.399 407.009 109.274 407.009C93.1165 407.009 80.0344 393.934 80.0344 377.758ZM152.625 388.761C152.625 372.613 165.716 359.507 181.841 359.507C197.961 359.507 211.052 372.613 211.052 388.761C211.052 404.928 197.961 418.003 181.841 418.003C165.716 418.003 152.625 404.928 152.625 388.761ZM112.485 553.306C112.485 536.533 126.054 522.949 142.799 522.949C159.552 522.949 173.12 536.533 173.12 553.306C173.12 570.078 159.552 583.662 142.799 583.662C126.054 583.662 112.485 570.078 112.485 553.306ZM24.3331 576.787C24.3331 560.414 37.5885 547.135 53.9412 547.135C70.2654 547.135 83.5237 560.414 83.5237 576.787C83.5237 593.131 70.2654 606.402 53.9412 606.402C37.5885 606.402 24.3331 593.131 24.3331 576.787ZM140.531 622.206C140.531 603.901 155.35 589.032 173.636 589.032C191.946 589.032 206.762 603.901 206.762 622.206C206.762 640.508 191.946 655.346 173.636 655.346C155.35 655.346 140.531 640.508 140.531 622.206ZM68.8204 624.136C68.8204 607.968 81.908 594.89 98.0281 594.89C114.185 594.89 127.244 607.968 127.244 624.136C127.244 640.284 114.185 653.387 98.0281 653.387C81.908 653.387 68.8204 640.284 68.8204 624.136ZM43.2068 666.806C43.2068 658.307 50.083 651.423 58.5715 651.423C67.0602 651.423 73.9279 658.307 73.9279 666.806C73.9279 675.305 67.0602 682.181 58.5715 682.181C50.083 682.181 43.2068 675.305 43.2068 666.806ZM161.202 138.167C161.202 117.364 178.063 100.483 198.87 100.483C219.656 100.483 236.518 117.364 236.518 138.167C236.518 159.008 219.656 175.861 198.87 175.861C178.063 175.861 161.202 159.008 161.202 138.167ZM195.665 208.068C195.665 190.386 209.976 176.028 227.657 176.028C245.319 176.028 259.659 190.386 259.659 208.068C259.659 225.742 245.319 240.099 227.657 240.099C209.976 240.099 195.665 225.742 195.665 208.068ZM207.898 76.2369C207.898 60.0887 220.986 46.985 237.114 46.985C253.27 46.985 266.352 60.0887 266.352 76.2369C266.352 92.3757 253.27 105.482 237.114 105.482C220.986 105.482 207.898 92.3757 207.898 76.2369ZM216.074 20.5193C216.074 9.18378 225.247 0 236.577 0C247.871 0 257.044 9.18378 257.044 20.5193C257.044 31.8351 247.871 41.0189 236.577 41.0189C225.247 41.0189 216.074 31.8351 216.074 20.5193ZM256.956 165.659C256.956 146.754 272.289 131.408 291.194 131.408C310.077 131.408 325.404 146.754 325.404 165.659C325.404 184.587 310.077 199.939 291.194 199.939C272.289 199.939 256.956 184.587 256.956 165.659ZM263.911 106.565C263.911 95.7898 272.633 87.063 283.39 87.063C294.152 87.063 302.865 95.7898 302.865 106.565C302.865 117.335 294.152 126.058 283.39 126.058C272.633 126.058 263.911 117.335 263.911 106.565ZM171.819 43.3467C171.819 32.0025 180.984 22.8275 192.314 22.8275C203.616 22.8275 212.809 32.0025 212.809 43.3467C212.809 54.6909 203.616 63.8667 192.314 63.8667C180.984 63.8667 171.819 54.6909 171.819 43.3467ZM157.988 81.6368C157.988 73.5082 164.58 66.8792 172.728 66.8792C180.845 66.8792 187.432 73.5082 187.432 81.6368C187.432 89.7634 180.845 96.3865 172.728 96.3865C164.58 96.3865 157.988 89.7634 157.988 81.6368ZM293.323 383.528C293.323 366.959 306.726 353.54 323.275 353.54C339.829 353.54 353.232 366.959 353.232 383.528C353.232 400.096 339.829 413.515 323.275 413.515C306.726 413.515 293.323 400.096 293.323 383.528ZM243.445 382.078C243.445 371.194 252.246 362.352 263.119 362.352C274.021 362.352 282.822 371.194 282.822 382.078C282.822 392.965 274.021 401.807 263.119 401.807C252.246 401.807 243.445 392.965 243.445 382.078ZM352.804 408.311C352.804 399.391 360.043 392.115 368.988 392.115C377.929 392.115 385.168 399.391 385.168 408.311C385.168 417.27 377.929 424.515 368.988 424.515C360.043 424.515 352.804 417.27 352.804 408.311ZM197.141 460.782C197.141 444.497 210.339 431.283 226.613 431.283C242.877 431.283 256.076 444.497 256.076 460.782C256.076 477.097 242.877 490.289 226.613 490.289C210.339 490.289 197.141 477.097 197.141 460.782ZM262.267 462.601C262.267 445.262 276.323 431.195 293.664 431.195C310.985 431.195 325.04 445.262 325.04 462.601C325.04 479.971 310.985 494.044 293.664 494.044C276.323 494.044 262.267 479.971 262.267 462.601ZM346.728 465.077C346.728 448.821 359.875 435.658 376.14 435.658C392.376 435.658 405.524 448.821 405.524 465.077C405.524 481.332 392.376 494.524 376.14 494.524C359.875 494.524 346.728 481.332 346.728 465.077ZM327.25 432.79C327.25 425.624 333.072 419.794 340.252 419.794C347.412 419.794 353.232 425.624 353.232 432.79C353.232 439.978 347.412 445.808 340.252 445.808C333.072 445.808 327.25 439.978 327.25 432.79ZM286.339 340.946C286.339 333.757 292.159 327.927 299.348 327.927C306.499 327.927 312.322 333.757 312.322 340.946C312.322 348.111 306.499 353.941 299.348 353.941C292.159 353.941 286.339 348.111 286.339 340.946ZM167.845 232.371C167.845 224.608 174.116 218.355 181.841 218.355C189.56 218.355 195.832 224.608 195.832 232.371C195.832 240.099 189.56 246.378 181.841 246.378C174.116 246.378 167.845 240.099 167.845 232.371ZM5.1386 248.686C5.1386 231.629 18.9333 217.789 35.9674 217.789C53.0043 217.789 66.8274 231.629 66.8274 248.686C66.8274 265.741 53.0043 279.552 35.9674 279.552C18.9333 279.552 5.1386 265.741 5.1386 248.686ZM61.3254 285.723C61.3254 269.575 74.4076 256.472 90.5357 256.472C106.693 256.472 119.752 269.575 119.752 285.723C119.752 301.891 106.693 314.969 90.5357 314.969C74.4076 314.969 61.3254 301.891 61.3254 285.723ZM202.251 270.624C202.251 262.839 208.55 256.528 216.335 256.528C224.111 256.528 230.414 262.839 230.414 270.624C230.414 278.418 224.111 284.725 216.335 284.725C208.55 284.725 202.251 278.418 202.251 270.624ZM139.85 288.815C139.85 272.676 152.938 259.57 169.066 259.57C185.214 259.57 198.274 272.676 198.274 288.815C198.274 304.964 185.214 318.067 169.066 318.067C152.938 318.067 139.85 304.964 139.85 288.815ZM22.9363 315.426C22.9363 307.18 29.5796 300.501 37.8156 300.501C46.0487 300.501 52.7204 307.18 52.7204 315.426C52.7204 323.641 46.0487 330.32 37.8156 330.32C29.5796 330.32 22.9363 323.641 22.9363 315.426ZM130.393 441.886C130.393 434.208 136.585 428.009 144.224 428.009C151.884 428.009 158.076 434.208 158.076 441.886C158.076 449.526 151.884 455.725 144.224 455.725C136.585 455.725 130.393 449.526 130.393 441.886ZM90.0277 459.989C90.0277 449.213 98.7404 440.49 109.498 440.49C120.261 440.49 128.976 449.213 128.976 459.989C128.976 470.759 120.261 479.491 109.498 479.491C98.7404 479.491 90.0277 470.759 90.0277 459.989ZM142.319 494.467C142.319 478.32 155.379 465.222 171.536 465.222C187.655 465.222 200.746 478.32 200.746 494.467C200.746 510.644 187.655 523.748 171.536 523.748C155.379 523.748 142.319 510.644 142.319 494.467ZM42.27 504.334C42.27 486.907 56.4139 472.754 73.8116 472.754C91.2487 472.754 105.384 486.907 105.384 504.334C105.384 521.783 91.2487 535.907 73.8116 535.907C56.4139 535.907 42.27 521.783 42.27 504.334ZM5.45089 511.181C5.45089 502.514 12.4945 495.462 21.179 495.462C29.8351 495.462 36.8759 502.514 36.8759 511.181C36.8759 519.876 29.8351 526.928 21.179 526.928C12.4945 526.928 5.45089 519.876 5.45089 511.181ZM16.3527 139.733C16.3527 128.105 25.7782 118.674 37.3925 118.674C49.0296 118.674 58.4552 128.105 58.4552 139.733C58.4552 151.39 49.0296 160.798 37.3925 160.798C25.7782 160.798 16.3527 151.39 16.3527 139.733ZM40.5694 186.608C40.5694 169.406 54.4805 155.48 71.6537 155.48C88.8067 155.48 102.746 169.406 102.746 186.608C102.746 203.773 88.8067 217.701 71.6537 217.701C54.4805 217.701 40.5694 203.773 40.5694 186.608ZM99.6489 105.255C99.6489 89.1099 112.74 76.0033 128.86 76.0033C144.985 76.0033 158.076 89.1099 158.076 105.255C158.076 121.431 144.985 134.501 128.86 134.501C112.74 134.501 99.6489 121.431 99.6489 105.255ZM118.046 190.298C118.046 173.954 131.273 160.71 147.603 160.71C163.927 160.71 177.154 173.954 177.154 190.298C177.154 206.641 163.927 219.892 147.603 219.892C131.273 219.892 118.046 206.641 118.046 190.298ZM107.913 56.8455C107.913 49.3732 113.989 43.3183 121.424 43.3183C128.888 43.3183 134.935 49.3732 134.935 56.8455C134.935 64.3237 128.888 70.3785 121.424 70.3785C113.989 70.3785 107.913 64.3237 107.913 56.8455ZM0 173.416C0 165.659 6.27137 159.343 14.0559 159.343C21.8036 159.343 28.0749 165.659 28.0749 173.416C28.0749 181.173 21.8036 187.46 14.0559 187.46C6.27137 187.46 0 181.173 0 173.416Z" fill="url(#paint0_linear_3712_1569)"/>
</g>
<line y1="-2.5" x2="94.8463" y2="-2.5" transform="matrix(0.97441 -0.224779 0.22494 0.974373 65.7598 579.179)" stroke="#F58071" stroke-width="5"/>
<line y1="-2.5" x2="60.2779" y2="-2.5" transform="matrix(-0.862413 0.506206 -0.504153 -0.863614 225.688 462.781)" stroke="#F58071" stroke-width="5"/>
<line y1="-2.5" x2="88.1084" y2="-2.5" transform="matrix(0.920984 -0.389601 0.387801 0.921743 95.0935 272.074)" stroke="#F58071" stroke-width="5"/>
<line y1="-2" x2="64.0173" y2="-2" transform="matrix(0.99029 -0.139019 0.138277 0.990394 95.0935 509.822)" stroke="#F58071" stroke-width="4"/>
<line y1="-2" x2="65.1119" y2="-2" transform="matrix(0.993114 0.117156 -0.116527 0.993188 111.576 382.684)" stroke="#F58071" stroke-width="4"/>
<line y1="-2" x2="76.3773" y2="-2" transform="matrix(0.049802 -0.998759 0.998746 0.0500737 225.688 439.896)" stroke="#F58071" stroke-width="4"/>
<line y1="-2" x2="60.2528" y2="-2" transform="matrix(-0.989032 -0.147705 0.146919 -0.989149 204.134 448.796)" stroke="#F58071" stroke-width="4"/>
<line y1="-2" x2="78.5554" y2="-2" transform="matrix(-0.85544 -0.517902 0.515836 -0.856687 225.688 598.818)" stroke="#F58071" stroke-width="4"/>
<line y1="-2" x2="64.7207" y2="-2" transform="matrix(0.333039 -0.942913 0.94234 0.334657 296.692 462.781)" stroke="#F68A6B" stroke-width="4"/>
</g>
<defs>
<linearGradient id="paint0_linear_3712_1569" x1="-945.888" y1="491.98" x2="1351.42" y2="491.98" gradientUnits="userSpaceOnUse">
<stop stop-color="#F04393"/>
<stop offset="1" stop-color="#F9C449"/>
</linearGradient>
<clipPath id="clip0_3712_1569">
<rect width="407" height="684" fill="white"/>
</clipPath>
</defs>
</svg>
