<svg width="80" height="134" viewBox="0 0 80 134" fill="none" xmlns="http://www.w3.org/2000/svg">
<g clip-path="url(#clip0_411_367)">
<line x1="20.2184" y1="53.3714" x2="26.2184" y2="40.3714" stroke="#E15CBF" stroke-width="3"/>
<line x1="15.3515" y1="33.1398" x2="22.3515" y2="23.1398" stroke="#E15CBF" stroke-width="3"/>
<line y1="-1.5" x2="9.76033" y2="-1.5" transform="matrix(-0.151597 -0.988442 0.988301 -0.152519 29.0601 33.6475)" stroke="#E15CBF" stroke-width="3"/>
<line y1="-1.5" x2="12.4813" y2="-1.5" transform="matrix(-0.948388 -0.317112 0.315345 -0.948977 53.4175 29.958)" stroke="#E15CBF" stroke-width="3"/>
<line x1="54.2785" y1="111.758" x2="45.8803" y2="107.327" stroke="#E15CBF" stroke-width="3"/>
<path d="M30.9163 121.505L17.3529 122" stroke="#E15CBF" stroke-width="3"/>
<line y1="-1" x2="10.18" y2="-1" transform="matrix(0.484492 0.874796 -0.873516 0.486795 3.9458 101.175)" stroke="#E15CBF" stroke-width="2"/>
<mask id="mask0_411_367" style="mask-type:luminance" maskUnits="userSpaceOnUse" x="0" y="0" width="79" height="133">
<path d="M58.2378 102.713C58.2378 99.2402 61.0496 96.4296 64.5117 96.4296C67.9733 96.4296 70.7833 99.2402 70.7833 102.713C70.7833 106.18 67.9733 108.989 64.5117 108.989C61.0496 108.989 58.2378 106.18 58.2378 102.713ZM38.1114 106.148C38.1114 102.884 40.7563 100.235 44.0148 100.235C47.277 100.235 49.9165 102.884 49.9165 106.148C49.9165 109.41 47.277 112.059 44.0148 112.059C40.7563 112.059 38.1114 109.41 38.1114 106.148ZM49.1717 112.828C49.1717 109.682 51.7171 107.132 54.8541 107.132C57.9893 107.132 60.5349 109.682 60.5349 112.828C60.5349 115.97 57.9893 118.519 54.8541 118.519C51.7171 118.519 49.1717 115.97 49.1717 112.828ZM40.9613 118.038C40.9613 115.72 42.8387 113.84 45.1512 113.84C47.4653 113.84 49.3368 115.72 49.3368 118.038C49.3368 120.355 47.4653 122.236 45.1512 122.236C42.8387 122.236 40.9613 120.355 40.9613 118.038ZM52.5571 99.5825C52.5571 98.1838 53.6835 97.0496 55.0799 97.0496C56.4769 97.0496 57.6034 98.1838 57.6034 99.5825C57.6034 100.976 56.4769 102.11 55.0799 102.11C53.6835 102.11 52.5571 100.976 52.5571 99.5825ZM37.0132 64.8724C37.0132 61.0398 40.1159 57.9322 43.9479 57.9322C47.7746 57.9322 50.8779 61.0398 50.8779 64.8724C50.8779 68.7052 47.7746 71.8143 43.9479 71.8143C40.1159 71.8143 37.0132 68.7052 37.0132 64.8724ZM25.9856 66.3773C25.9856 64.2751 27.6862 62.5662 29.7895 62.5662C31.889 62.5662 33.5951 64.2751 33.5951 66.3773C33.5951 68.4844 31.889 70.1872 29.7895 70.1872C27.6862 70.1872 25.9856 68.4844 25.9856 66.3773ZM12.6289 66.1168C12.6289 64.6463 13.8205 63.4566 15.2893 63.4566C16.7538 63.4566 17.9453 64.6463 17.9453 66.1168C17.9453 67.588 16.7538 68.783 15.2893 68.783C13.8205 68.783 12.6289 67.588 12.6289 66.1168ZM15.5665 73.5007C15.5665 70.3587 18.1109 67.8102 21.2535 67.8102C24.3898 67.8102 26.9359 70.3587 26.9359 73.5007C26.9359 76.648 24.3898 79.1921 21.2535 79.1921C18.1109 79.1921 15.5665 76.648 15.5665 73.5007ZM29.6852 75.6415C29.6852 72.4995 32.2313 69.9495 35.3676 69.9495C38.503 69.9495 41.0491 72.4995 41.0491 75.6415C41.0491 78.7872 38.503 81.3312 35.3676 81.3312C32.2313 81.3312 29.6852 78.7872 29.6852 75.6415ZM21.878 107.657C21.878 104.394 24.5173 101.751 27.774 101.751C31.0325 101.751 33.6713 104.394 33.6713 107.657C33.6713 110.921 31.0325 113.564 27.774 113.564C24.5173 113.564 21.878 110.921 21.878 107.657ZM4.73274 112.226C4.73274 109.04 7.31087 106.456 10.4914 106.456C13.6665 106.456 16.2451 109.04 16.2451 112.226C16.2451 115.406 13.6665 117.988 10.4914 117.988C7.31087 117.988 4.73274 115.406 4.73274 112.226ZM27.3328 121.063C27.3328 117.501 30.2153 114.608 33.7718 114.608C37.3329 114.608 40.2147 117.501 40.2147 121.063C40.2147 124.624 37.3329 127.511 33.7718 127.511C30.2153 127.511 27.3328 124.624 27.3328 121.063ZM13.3854 121.439C13.3854 118.293 15.9309 115.748 19.0662 115.748C22.2086 115.748 24.7487 118.293 24.7487 121.439C24.7487 124.58 22.2086 127.13 19.0662 127.13C15.9309 127.13 13.3854 124.58 13.3854 121.439ZM8.40362 129.741C8.40362 128.087 9.74101 126.748 11.392 126.748C13.043 126.748 14.3788 128.087 14.3788 129.741C14.3788 131.395 13.043 132.732 11.392 132.732C9.74101 132.732 8.40362 131.395 8.40362 129.741ZM31.3533 26.8833C31.3533 22.8355 34.6327 19.551 38.6797 19.551C42.7226 19.551 46.0021 22.8355 46.0021 26.8833C46.0021 30.9384 42.7226 34.2174 38.6797 34.2174C34.6327 34.2174 31.3533 30.9384 31.3533 26.8833ZM38.0563 40.4839C38.0563 37.0435 40.8397 34.2499 44.2787 34.2499C47.7138 34.2499 50.503 37.0435 50.503 40.4839C50.503 43.9228 47.7138 46.7163 44.2787 46.7163C40.8397 46.7163 38.0563 43.9228 38.0563 40.4839ZM40.4356 14.8335C40.4356 11.6915 42.9812 9.14191 46.1181 9.14191C49.2604 9.14191 51.8049 11.6915 51.8049 14.8335C51.8049 17.9736 49.2604 20.5238 46.1181 20.5238C42.9812 20.5238 40.4356 17.9736 40.4356 14.8335ZM42.0259 3.99245C42.0259 1.7869 43.81 0 46.0137 0C48.2103 0 49.9944 1.7869 49.9944 3.99245C49.9944 6.19418 48.2103 7.98108 46.0137 7.98108C43.81 7.98108 42.0259 6.19418 42.0259 3.99245ZM49.9773 32.2324C49.9773 28.5541 52.9595 25.5682 56.6365 25.5682C60.3091 25.5682 63.2902 28.5541 63.2902 32.2324C63.2902 35.9152 60.3091 38.9023 56.6365 38.9023C52.9595 38.9023 49.9773 35.9152 49.9773 32.2324ZM51.3301 20.7344C51.3301 18.6379 53.0264 16.9399 55.1186 16.9399C57.2118 16.9399 58.9066 18.6379 58.9066 20.7344C58.9066 22.83 57.2118 24.5273 55.1186 24.5273C53.0264 24.5273 51.3301 22.83 51.3301 20.7344ZM33.4184 8.43401C33.4184 6.22675 35.201 4.44154 37.4046 4.44154C39.6029 4.44154 41.3909 6.22675 41.3909 8.43401C41.3909 10.6413 39.6029 12.4266 37.4046 12.4266C35.201 12.4266 33.4184 10.6413 33.4184 8.43401ZM30.7283 15.8841C30.7283 14.3025 32.0104 13.0127 33.5951 13.0127C35.1738 13.0127 36.455 14.3025 36.455 15.8841C36.455 17.4653 35.1738 18.754 33.5951 18.754C32.0104 18.754 30.7283 17.4653 30.7283 15.8841ZM57.0507 74.6233C57.0507 71.3996 59.6575 68.7886 62.8762 68.7886C66.0959 68.7886 68.7028 71.3996 68.7028 74.6233C68.7028 77.8471 66.0959 80.458 62.8762 80.458C59.6575 80.458 57.0507 77.8471 57.0507 74.6233ZM47.3494 74.3412C47.3494 72.2236 49.0611 70.5031 51.176 70.5031C53.2964 70.5031 55.0082 72.2236 55.0082 74.3412C55.0082 76.4594 53.2964 78.1799 51.176 78.1799C49.0611 78.1799 47.3494 76.4594 47.3494 74.3412ZM68.6194 79.4454C68.6194 77.7099 70.0275 76.2941 71.7673 76.2941C73.5062 76.2941 74.9142 77.7099 74.9142 79.4454C74.9142 81.1885 73.5062 82.5983 71.7673 82.5983C70.0275 82.5983 68.6194 81.1885 68.6194 79.4454ZM38.3434 89.6547C38.3434 86.4862 40.9104 83.9151 44.0756 83.9151C47.239 83.9151 49.8061 86.4862 49.8061 89.6547C49.8061 92.8292 47.239 95.3959 44.0756 95.3959C40.9104 95.3959 38.3434 92.8292 38.3434 89.6547ZM51.0103 90.0086C51.0103 86.635 53.7442 83.898 57.117 83.898C60.4858 83.898 63.2195 86.635 63.2195 90.0086C63.2195 93.3883 60.4858 96.1265 57.117 96.1265C53.7442 96.1265 51.0103 93.3883 51.0103 90.0086ZM67.4377 90.4904C67.4377 87.3275 69.9948 84.7663 73.1583 84.7663C76.3162 84.7663 78.8734 87.3275 78.8734 90.4904C78.8734 93.6532 76.3162 96.2199 73.1583 96.2199C69.9948 96.2199 67.4377 93.6532 67.4377 90.4904ZM63.6493 84.2083C63.6493 82.814 64.7817 81.6797 66.1782 81.6797C67.5708 81.6797 68.7028 82.814 68.7028 84.2083C68.7028 85.6069 67.5708 86.7412 66.1782 86.7412C64.7817 86.7412 63.6493 85.6069 63.6493 84.2083ZM55.6922 66.3381C55.6922 64.9394 56.8242 63.805 58.2224 63.805C59.6134 63.805 60.7458 64.9394 60.7458 66.3381C60.7458 67.7322 59.6134 68.8666 58.2224 68.8666C56.8242 68.8666 55.6922 67.7322 55.6922 66.3381ZM32.6454 45.2126C32.6454 43.7022 33.8651 42.4854 35.3676 42.4854C36.869 42.4854 38.0888 43.7022 38.0888 45.2126C38.0888 46.7163 36.869 47.938 35.3676 47.938C33.8651 47.938 32.6454 46.7163 32.6454 45.2126ZM0.999445 48.3871C0.999445 45.0682 3.68249 42.3754 6.99557 42.3754C10.3092 42.3754 12.9978 45.0682 12.9978 48.3871C12.9978 51.7054 10.3092 54.3927 6.99557 54.3927C3.68249 54.3927 0.999445 51.7054 0.999445 48.3871ZM11.9276 55.5933C11.9276 52.4515 14.4721 49.9019 17.609 49.9019C20.7515 49.9019 23.2916 52.4515 23.2916 55.5933C23.2916 58.7391 20.7515 61.2838 17.609 61.2838C14.4721 61.2838 11.9276 58.7391 11.9276 55.5933ZM39.3372 52.6555C39.3372 51.1407 40.5625 49.9129 42.0766 49.9129C43.589 49.9129 44.8149 51.1407 44.8149 52.6555C44.8149 54.172 43.589 55.3992 42.0766 55.3992C40.5625 55.3992 39.3372 54.172 39.3372 52.6555ZM27.2004 56.195C27.2004 53.0548 29.746 50.5047 32.8828 50.5047C36.0237 50.5047 38.5637 53.0548 38.5637 56.195C38.5637 59.337 36.0237 61.8865 32.8828 61.8865C29.746 61.8865 27.2004 59.337 27.2004 56.195ZM4.46106 61.3727C4.46106 59.7683 5.75316 58.4687 7.35504 58.4687C8.95636 58.4687 10.254 59.7683 10.254 61.3727C10.254 62.9711 8.95636 64.2707 7.35504 64.2707C5.75316 64.2707 4.46106 62.9711 4.46106 61.3727ZM25.361 85.9781C25.361 84.4843 26.5654 83.278 28.0512 83.278C29.541 83.278 30.7454 84.4843 30.7454 85.9781C30.7454 87.4647 29.541 88.6708 28.0512 88.6708C26.5654 88.6708 25.361 87.4647 25.361 85.9781ZM17.5102 89.5003C17.5102 87.4038 19.2048 85.7065 21.297 85.7065C23.3904 85.7065 25.0855 87.4038 25.0855 89.5003C25.0855 91.5959 23.3904 93.2949 21.297 93.2949C19.2048 93.2949 17.5102 91.5959 17.5102 89.5003ZM27.6807 96.2089C27.6807 93.0671 30.2208 90.5186 33.3633 90.5186C36.4985 90.5186 39.0446 93.0671 39.0446 96.2089C39.0446 99.3564 36.4985 101.906 33.3633 101.906C30.2208 101.906 27.6807 99.3564 27.6807 96.2089ZM8.22141 98.1286C8.22141 94.7379 10.9724 91.9841 14.3562 91.9841C17.7476 91.9841 20.4969 94.7379 20.4969 98.1286C20.4969 101.524 17.7476 104.272 14.3562 104.272C10.9724 104.272 8.22141 101.524 8.22141 98.1286ZM1.06019 99.4609C1.06019 97.7746 2.43014 96.4024 4.11926 96.4024C5.80286 96.4024 7.17227 97.7746 7.17227 99.4609C7.17227 101.153 5.80286 102.525 4.11926 102.525C2.43014 102.525 1.06019 101.153 1.06019 99.4609ZM3.18056 27.188C3.18056 24.9255 5.0138 23.0905 7.27276 23.0905C9.53614 23.0905 11.3694 24.9255 11.3694 27.188C11.3694 29.4561 9.53614 31.2866 7.27276 31.2866C5.0138 31.2866 3.18056 29.4561 3.18056 27.188ZM7.89065 36.3084C7.89065 32.9614 10.5963 30.252 13.9365 30.252C17.2727 30.252 19.9839 32.9614 19.9839 36.3084C19.9839 39.6483 17.2727 42.3583 13.9365 42.3583C10.5963 42.3583 7.89065 39.6483 7.89065 36.3084ZM19.3815 20.4795C19.3815 17.3382 21.9276 14.788 25.0629 14.788C28.1992 14.788 30.7454 17.3382 30.7454 20.4795C30.7454 23.627 28.1992 26.1699 25.0629 26.1699C21.9276 26.1699 19.3815 23.627 19.3815 20.4795ZM22.9597 37.0264C22.9597 33.8463 25.5322 31.2695 28.7084 31.2695C31.8834 31.2695 34.456 33.8463 34.456 37.0264C34.456 40.2063 31.8834 42.7846 28.7084 42.7846C25.5322 42.7846 22.9597 40.2063 22.9597 37.0264ZM20.9888 11.0605C20.9888 9.60658 22.1706 8.42848 23.6167 8.42848C25.0684 8.42848 26.2445 9.60658 26.2445 11.0605C26.2445 12.5155 25.0684 13.6936 23.6167 13.6936C22.1706 13.6936 20.9888 12.5155 20.9888 11.0605ZM0 33.7417C0 32.2324 1.21977 31.0035 2.73384 31.0035C4.24074 31.0035 5.4605 32.2324 5.4605 33.7417C5.4605 35.2509 4.24074 36.4743 2.73384 36.4743C1.21977 36.4743 0 35.2509 0 33.7417Z" fill="white"/>
</mask>
<g mask="url(#mask0_411_367)">
<path d="M58.2378 102.713C58.2378 99.2401 61.0496 96.4296 64.5117 96.4296C67.9733 96.4296 70.7833 99.2401 70.7833 102.713C70.7833 106.18 67.9733 108.989 64.5117 108.989C61.0496 108.989 58.2378 106.18 58.2378 102.713ZM38.1114 106.148C38.1114 102.884 40.7563 100.235 44.0148 100.235C47.277 100.235 49.9165 102.884 49.9165 106.148C49.9165 109.41 47.277 112.059 44.0148 112.059C40.7563 112.059 38.1114 109.41 38.1114 106.148ZM49.1717 112.828C49.1717 109.682 51.7171 107.132 54.8541 107.132C57.9893 107.132 60.5349 109.682 60.5349 112.828C60.5349 115.97 57.9893 118.519 54.8541 118.519C51.7171 118.519 49.1717 115.97 49.1717 112.828ZM40.9613 118.038C40.9613 115.72 42.8387 113.84 45.1512 113.84C47.4653 113.84 49.3368 115.72 49.3368 118.038C49.3368 120.355 47.4653 122.236 45.1512 122.236C42.8387 122.236 40.9613 120.355 40.9613 118.038ZM52.5571 99.5825C52.5571 98.1838 53.6835 97.0496 55.0799 97.0496C56.4769 97.0496 57.6034 98.1838 57.6034 99.5825C57.6034 100.976 56.4769 102.11 55.0799 102.11C53.6835 102.11 52.5571 100.976 52.5571 99.5825ZM37.0132 64.8724C37.0132 61.0398 40.1159 57.9322 43.9479 57.9322C47.7746 57.9322 50.8779 61.0398 50.8779 64.8724C50.8779 68.7052 47.7746 71.8143 43.9479 71.8143C40.1159 71.8143 37.0132 68.7052 37.0132 64.8724ZM25.9856 66.3773C25.9856 64.2751 27.6862 62.5662 29.7895 62.5662C31.889 62.5662 33.5951 64.2751 33.5951 66.3773C33.5951 68.4844 31.889 70.1872 29.7895 70.1872C27.6862 70.1872 25.9856 68.4844 25.9856 66.3773ZM12.6289 66.1168C12.6289 64.6463 13.8205 63.4566 15.2893 63.4566C16.7538 63.4566 17.9453 64.6463 17.9453 66.1168C17.9453 67.5879 16.7538 68.783 15.2893 68.783C13.8205 68.783 12.6289 67.5879 12.6289 66.1168ZM15.5665 73.5007C15.5665 70.3587 18.1109 67.8102 21.2535 67.8102C24.3898 67.8102 26.9359 70.3587 26.9359 73.5007C26.9359 76.648 24.3898 79.1921 21.2535 79.1921C18.1109 79.1921 15.5665 76.648 15.5665 73.5007ZM29.6852 75.6415C29.6852 72.4995 32.2313 69.9495 35.3676 69.9495C38.503 69.9495 41.0491 72.4995 41.0491 75.6415C41.0491 78.7872 38.503 81.3312 35.3676 81.3312C32.2313 81.3312 29.6852 78.7872 29.6852 75.6415ZM21.878 107.657C21.878 104.394 24.5173 101.751 27.774 101.751C31.0325 101.751 33.6713 104.394 33.6713 107.657C33.6713 110.921 31.0325 113.564 27.774 113.564C24.5173 113.564 21.878 110.921 21.878 107.657ZM4.73274 112.226C4.73274 109.04 7.31087 106.456 10.4914 106.456C13.6665 106.456 16.2451 109.04 16.2451 112.226C16.2451 115.406 13.6665 117.988 10.4914 117.988C7.31087 117.988 4.73274 115.406 4.73274 112.226ZM27.3328 121.063C27.3328 117.501 30.2153 114.608 33.7718 114.608C37.3329 114.608 40.2147 117.501 40.2147 121.063C40.2147 124.624 37.3329 127.511 33.7718 127.511C30.2153 127.511 27.3328 124.624 27.3328 121.063ZM13.3854 121.439C13.3854 118.293 15.9309 115.748 19.0662 115.748C22.2086 115.748 24.7487 118.293 24.7487 121.439C24.7487 124.58 22.2086 127.13 19.0662 127.13C15.9309 127.13 13.3854 124.58 13.3854 121.439ZM8.40362 129.741C8.40362 128.087 9.74101 126.748 11.392 126.748C13.043 126.748 14.3788 128.087 14.3788 129.741C14.3788 131.395 13.043 132.732 11.392 132.732C9.74101 132.732 8.40362 131.395 8.40362 129.741ZM31.3533 26.8833C31.3533 22.8355 34.6327 19.551 38.6797 19.551C42.7226 19.551 46.0021 22.8355 46.0021 26.8833C46.0021 30.9384 42.7226 34.2174 38.6797 34.2174C34.6327 34.2174 31.3533 30.9384 31.3533 26.8833ZM38.0563 40.4839C38.0563 37.0435 40.8397 34.2499 44.2787 34.2499C47.7138 34.2499 50.503 37.0435 50.503 40.4839C50.503 43.9228 47.7138 46.7163 44.2787 46.7163C40.8397 46.7163 38.0563 43.9228 38.0563 40.4839ZM40.4356 14.8335C40.4356 11.6915 42.9812 9.14191 46.1181 9.14191C49.2604 9.14191 51.8049 11.6915 51.8049 14.8335C51.8049 17.9736 49.2604 20.5238 46.1181 20.5238C42.9812 20.5238 40.4356 17.9736 40.4356 14.8335ZM42.0259 3.99245C42.0259 1.78689 43.81 0 46.0137 0C48.2103 0 49.9944 1.78689 49.9944 3.99245C49.9944 6.19418 48.2103 7.98108 46.0137 7.98108C43.81 7.98108 42.0259 6.19418 42.0259 3.99245ZM49.9773 32.2324C49.9773 28.5541 52.9595 25.5682 56.6365 25.5682C60.3091 25.5682 63.2902 28.5541 63.2902 32.2324C63.2902 35.9152 60.3091 38.9023 56.6365 38.9023C52.9595 38.9023 49.9773 35.9152 49.9773 32.2324ZM51.3301 20.7344C51.3301 18.6379 53.0264 16.9399 55.1186 16.9399C57.2118 16.9399 58.9066 18.6379 58.9066 20.7344C58.9066 22.83 57.2118 24.5273 55.1186 24.5273C53.0264 24.5273 51.3301 22.83 51.3301 20.7344ZM33.4184 8.43401C33.4184 6.22675 35.201 4.44154 37.4046 4.44154C39.6029 4.44154 41.3909 6.22675 41.3909 8.43401C41.3909 10.6413 39.6029 12.4266 37.4046 12.4266C35.201 12.4266 33.4184 10.6413 33.4184 8.43401ZM30.7283 15.8841C30.7283 14.3025 32.0104 13.0127 33.5951 13.0127C35.1738 13.0127 36.455 14.3025 36.455 15.8841C36.455 17.4653 35.1738 18.754 33.5951 18.754C32.0104 18.754 30.7283 17.4653 30.7283 15.8841ZM57.0507 74.6233C57.0507 71.3996 59.6575 68.7886 62.8762 68.7886C66.0959 68.7886 68.7028 71.3996 68.7028 74.6233C68.7028 77.8471 66.0959 80.458 62.8762 80.458C59.6575 80.458 57.0507 77.8471 57.0507 74.6233ZM47.3494 74.3412C47.3494 72.2236 49.0611 70.5031 51.176 70.5031C53.2964 70.5031 55.0082 72.2236 55.0082 74.3412C55.0082 76.4594 53.2964 78.1799 51.176 78.1799C49.0611 78.1799 47.3494 76.4594 47.3494 74.3412ZM68.6194 79.4454C68.6194 77.7099 70.0275 76.2941 71.7673 76.2941C73.5062 76.2941 74.9142 77.7099 74.9142 79.4454C74.9142 81.1885 73.5062 82.5983 71.7673 82.5983C70.0275 82.5983 68.6194 81.1885 68.6194 79.4454ZM38.3434 89.6547C38.3434 86.4862 40.9104 83.9151 44.0756 83.9151C47.239 83.9151 49.8061 86.4862 49.8061 89.6547C49.8061 92.8292 47.239 95.3959 44.0756 95.3959C40.9104 95.3959 38.3434 92.8292 38.3434 89.6547ZM51.0103 90.0086C51.0103 86.635 53.7442 83.898 57.117 83.898C60.4858 83.898 63.2196 86.635 63.2196 90.0086C63.2196 93.3883 60.4858 96.1265 57.117 96.1265C53.7442 96.1265 51.0103 93.3883 51.0103 90.0086ZM67.4377 90.4904C67.4377 87.3275 69.9948 84.7663 73.1583 84.7663C76.3162 84.7663 78.8734 87.3275 78.8734 90.4904C78.8734 93.6532 76.3162 96.2199 73.1583 96.2199C69.9948 96.2199 67.4377 93.6532 67.4377 90.4904ZM63.6493 84.2083C63.6493 82.814 64.7817 81.6797 66.1782 81.6797C67.5708 81.6797 68.7028 82.814 68.7028 84.2083C68.7028 85.6069 67.5708 86.7412 66.1782 86.7412C64.7817 86.7412 63.6493 85.6069 63.6493 84.2083ZM55.6922 66.3381C55.6922 64.9394 56.8242 63.805 58.2224 63.805C59.6134 63.805 60.7458 64.9394 60.7458 66.3381C60.7458 67.7322 59.6134 68.8666 58.2224 68.8666C56.8242 68.8666 55.6922 67.7322 55.6922 66.3381ZM32.6454 45.2126C32.6454 43.7022 33.8651 42.4854 35.3676 42.4854C36.869 42.4854 38.0888 43.7022 38.0888 45.2126C38.0888 46.7163 36.869 47.938 35.3676 47.938C33.8651 47.938 32.6454 46.7163 32.6454 45.2126ZM0.999445 48.3871C0.999445 45.0682 3.68249 42.3754 6.99557 42.3754C10.3092 42.3754 12.9978 45.0682 12.9978 48.3871C12.9978 51.7054 10.3092 54.3927 6.99557 54.3927C3.68249 54.3927 0.999445 51.7054 0.999445 48.3871ZM11.9276 55.5933C11.9276 52.4515 14.4721 49.9019 17.609 49.9019C20.7515 49.9019 23.2916 52.4515 23.2916 55.5933C23.2916 58.7391 20.7515 61.2838 17.609 61.2838C14.4721 61.2838 11.9276 58.7391 11.9276 55.5933ZM39.3373 52.6555C39.3373 51.1407 40.5625 49.9129 42.0766 49.9129C43.589 49.9129 44.8149 51.1407 44.8149 52.6555C44.8149 54.172 43.589 55.3992 42.0766 55.3992C40.5625 55.3992 39.3373 54.172 39.3373 52.6555ZM27.2004 56.195C27.2004 53.0548 29.746 50.5047 32.8828 50.5047C36.0237 50.5047 38.5637 53.0548 38.5637 56.195C38.5637 59.337 36.0237 61.8865 32.8828 61.8865C29.746 61.8865 27.2004 59.337 27.2004 56.195ZM4.46106 61.3727C4.46106 59.7683 5.75316 58.4687 7.35504 58.4687C8.95636 58.4687 10.254 59.7683 10.254 61.3727C10.254 62.9711 8.95636 64.2707 7.35504 64.2707C5.75316 64.2707 4.46106 62.9711 4.46106 61.3727ZM25.361 85.9781C25.361 84.4843 26.5654 83.278 28.0512 83.278C29.541 83.278 30.7454 84.4843 30.7454 85.9781C30.7454 87.4647 29.541 88.6708 28.0512 88.6708C26.5654 88.6708 25.361 87.4647 25.361 85.9781ZM17.5102 89.5003C17.5102 87.4038 19.2048 85.7065 21.297 85.7065C23.3904 85.7065 25.0855 87.4038 25.0855 89.5003C25.0855 91.5959 23.3904 93.2949 21.297 93.2949C19.2048 93.2949 17.5102 91.5959 17.5102 89.5003ZM27.6807 96.2089C27.6807 93.0671 30.2208 90.5186 33.3633 90.5186C36.4985 90.5186 39.0446 93.0671 39.0446 96.2089C39.0446 99.3564 36.4985 101.906 33.3633 101.906C30.2208 101.906 27.6807 99.3564 27.6807 96.2089ZM8.22141 98.1286C8.22141 94.7379 10.9724 91.9841 14.3562 91.9841C17.7476 91.9841 20.4969 94.7379 20.4969 98.1286C20.4969 101.524 17.7476 104.272 14.3562 104.272C10.9724 104.272 8.22141 101.524 8.22141 98.1286ZM1.06019 99.4609C1.06019 97.7746 2.43014 96.4024 4.11926 96.4024C5.80286 96.4024 7.17227 97.7746 7.17227 99.4609C7.17227 101.153 5.80286 102.525 4.11926 102.525C2.43014 102.525 1.06019 101.153 1.06019 99.4609ZM3.18056 27.188C3.18056 24.9255 5.0138 23.0905 7.27276 23.0905C9.53614 23.0905 11.3694 24.9255 11.3694 27.188C11.3694 29.4561 9.53614 31.2866 7.27276 31.2866C5.0138 31.2866 3.18056 29.4561 3.18056 27.188ZM7.89065 36.3084C7.89065 32.9614 10.5963 30.252 13.9365 30.252C17.2727 30.252 19.9839 32.9614 19.9839 36.3084C19.9839 39.6483 17.2727 42.3583 13.9365 42.3583C10.5963 42.3583 7.89065 39.6483 7.89065 36.3084ZM19.3815 20.4795C19.3815 17.3382 21.9276 14.788 25.0629 14.788C28.1992 14.788 30.7454 17.3382 30.7454 20.4795C30.7454 23.6269 28.1992 26.1699 25.0629 26.1699C21.9276 26.1699 19.3815 23.6269 19.3815 20.4795ZM22.9597 37.0263C22.9597 33.8463 25.5322 31.2695 28.7084 31.2695C31.8834 31.2695 34.456 33.8463 34.456 37.0263C34.456 40.2063 31.8834 42.7846 28.7084 42.7846C25.5322 42.7846 22.9597 40.2063 22.9597 37.0263ZM20.9888 11.0605C20.9888 9.60657 22.1706 8.42847 23.6167 8.42847C25.0684 8.42847 26.2445 9.60657 26.2445 11.0605C26.2445 12.5155 25.0684 13.6936 23.6167 13.6936C22.1706 13.6936 20.9888 12.5155 20.9888 11.0605ZM0 33.7417C0 32.2324 1.21977 31.0035 2.73384 31.0035C4.24074 31.0035 5.46051 32.2324 5.46051 33.7417C5.46051 35.2509 4.24074 36.4743 2.73384 36.4743C1.21977 36.4743 0 35.2509 0 33.7417Z" fill="#E15CBF"/>
</g>
<line x1="12.4527" y1="111.23" x2="30.4281" y2="107.082" stroke="#E15CBF" stroke-width="3"/>
<line y1="-1.5" x2="11.725" y2="-1.5" transform="matrix(-0.86233 0.506348 -0.504012 -0.863697 43.6912 89)" stroke="#E15CBF" stroke-width="3"/>
<line x1="20.7483" y1="54.7519" x2="35.7483" y2="44.7519" stroke="#E15CBF" stroke-width="3"/>
<line y1="-1.5" x2="12.4513" y2="-1.5" transform="matrix(0.990282 -0.139071 0.138226 0.990401 18.4954 99.1964)" stroke="#E15CBF" stroke-width="3"/>
<line y1="-1.5" x2="12.6642" y2="-1.5" transform="matrix(0.993108 0.1172 -0.116484 0.993193 21.5803 75)" stroke="#E15CBF" stroke-width="3"/>
<line x1="44.0805" y1="86.026" x2="43.8204" y2="71.026" stroke="#E15CBF" stroke-width="3"/>
<line x1="40.2159" y1="89.4192" x2="29.1901" y2="86.4483" stroke="#E15CBF" stroke-width="3"/>
<line x1="54.5926" y1="99.1289" x2="46.5926" y2="92.1289" stroke="#E15CBF" stroke-width="3"/>
<line y1="-1.5" x2="15.2804" y2="-1.5" transform="matrix(-0.855353 -0.518045 0.515694 -0.856773 44.6504 114.916)" stroke="#E15CBF" stroke-width="3"/>
<line y1="-1.5" x2="12.5922" y2="-1.5" transform="matrix(0.332927 -0.942953 0.9423 0.334769 58.5803 89.8739)" stroke="#E15CBF" stroke-width="3"/>
</g>
<defs>
<clipPath id="clip0_411_367">
<rect width="79.1605" height="133.086" fill="white"/>
</clipPath>
</defs>
</svg>
