<?xml version="1.0" encoding="utf-8"?>
<!-- Generator: Adobe Illustrator 27.3.1, SVG Export Plug-In . SVG Version: 6.00 Build 0)  -->
<svg version="1.1" id="Layer_1" xmlns="http://www.w3.org/2000/svg" xmlns:xlink="http://www.w3.org/1999/xlink" x="0px" y="0px"
	 viewBox="0 0 800 800" style="enable-background:new 0 0 800 800;" xml:space="preserve">
<style type="text/css">
	.st0{fill:#7F52FF;}
	.st1{fill:#FFFFFF;}
	.st2{fill:#FE2857;}
</style>
<g>
	<g>
		<path d="M429.4,283.2L321,290.7l16.6-50.4c10.1-30.8,52.4-34,67.1-5.2L429.4,283.2z"/>
	</g>
	<g>
		<path class="st0" d="M136.1,556.8c-5.3,0-10.6-0.2-16-0.7c-10.5-0.9-18.2-10.2-17.2-20.6c0.9-10.5,10.1-18.2,20.6-17.2
			c65.4,5.8,114.9-34.7,134.9-77.5c4.4-9.5,15.8-13.6,25.3-9.2c9.5,4.4,13.6,15.8,9.2,25.3C268.8,508.1,211.8,556.8,136.1,556.8z"/>
	</g>
	<g>
		<g>
			<path class="st0" d="M362.2,677.9c-6.7,0-13.2-3.6-16.7-9.8c-23.9-43.4-38.9-117.6-19.7-169.9c9.8-26.5,27.7-45.3,51.7-54.4
				c9.8-3.7,20.8,1.3,24.5,11.1c3.7,9.8-1.3,20.8-11.1,24.5c-13.8,5.2-23.5,15.7-29.5,32c-14.6,39.6-2.4,102.7,17.3,138.4
				c5.1,9.2,1.7,20.7-7.5,25.8C368.4,677.1,365.3,677.9,362.2,677.9z"/>
		</g>
		<g>
			<path class="st0" d="M479.5,585.7c-3.6,0-7.2-1-10.4-3.1c-0.3-0.2-30.3-20-58.9-40c-23.5-16.5-33.9-42.4-26.5-65.9
				c7-22,28-35.7,54.9-35.7c10.5,0,19,8.5,19,19c0,10.5-8.5,19-19,19c-10,0-16.8,3.3-18.6,9.2c-1.9,6.1,1.1,15.7,12.1,23.4
				c28.1,19.7,57.7,39.2,58,39.4c8.8,5.8,11.2,17.6,5.4,26.3C491.7,582.7,485.7,585.7,479.5,585.7z"/>
		</g>
	</g>
	<g>
		<g>
			<path class="st0" d="M514.1,475.2l-256.9,18c-20,1.4-37.4-13.7-38.8-33.7l-14.2-203.1c-2.3-32.5,33.5-53.7,61-36.1l97.6,62.8
				c5.5,3.6,12.8,3.1,17.7-1.2l87.7-75.7c24.7-21.3,63.1-5.3,65.4,27.2l14.2,203.1C549.2,456.5,534.1,473.8,514.1,475.2z"/>
		</g>
		<g>
			<g>
				<path d="M259.6,473.5l218.8-15.4c12.7-0.9,22.3-11.9,21.4-24.7l-8-113.5c-0.9-12.7-11.9-22.3-24.7-21.4L248.3,314
					c-12.7,0.9-22.3,11.9-21.4,24.7l8,113.5C235.8,464.8,246.8,474.4,259.6,473.5z"/>
			</g>
		</g>
		<g>
			<g>
				<g>
					<path class="st1" d="M411.7,343c16.9,0,31.1,13.3,32.3,30.2c0.6,8.6-2.2,17-7.9,23.6c-5.7,6.5-13.6,10.5-22.2,11.1
						c-0.8,0.1-1.5,0.1-2.3,0.1c-16.9,0-31.1-13.3-32.3-30.2c-0.6-8.6,2.2-17,7.9-23.6c5.7-6.5,13.6-10.5,22.2-11.1
						C410.2,343.1,411,343,411.7,343 M411.7,325c-1.2,0-2.4,0-3.6,0.1c-27.8,1.9-48.7,26.1-46.8,53.8c1.9,26.6,24,46.9,50.3,46.9
						c1.2,0,2.4,0,3.6-0.1c27.8-1.9,48.7-26.1,46.8-53.8C460.1,345.4,438,325,411.7,325L411.7,325z"/>
				</g>
				<g>
					<path class="st1" d="M293.1,351.4c16.9,0,31.1,13.3,32.3,30.2c0.6,8.6-2.2,17-7.9,23.6c-5.7,6.5-13.6,10.5-22.2,11.1
						c-0.8,0.1-1.5,0.1-2.3,0.1c-16.9,0-31.1-13.3-32.3-30.2c-1.2-17.8,12.3-33.4,30.1-34.6C291.5,351.4,292.3,351.4,293.1,351.4
						 M293.1,333.4c-1.2,0-2.4,0-3.6,0.1c-27.8,1.9-48.7,26.1-46.8,53.8c1.9,26.6,24,46.9,50.3,46.9c1.2,0,2.4,0,3.6-0.1
						c27.8-1.9,48.8-26.1,46.8-53.8C341.5,353.7,319.3,333.4,293.1,333.4L293.1,333.4z"/>
				</g>
			</g>
			<g>
				<g>
					<g>
						<path class="st1" d="M370.4,425.9c-1.3,0.7-2.6,1.4-3.9,2.1c-0.3,0.2-0.7,0.3-1,0.5c-0.1,0.1-0.3,0.1-0.4,0.2
							c0.3-0.1,0.3-0.1,0,0c-0.6,0.2-1.2,0.5-1.9,0.7c-1.4,0.5-2.8,0.9-4.2,1.2c-0.6,0.1-1.3,0.3-1.9,0.4c-0.3,0.1-1,0.1-0.3,0.1
							c-0.4,0-0.7,0.1-1.1,0.1c-1.3,0.1-2.7,0.2-4.1,0.1c-0.6,0-1.3-0.1-1.9-0.1c-0.4,0-0.7-0.1-1.1-0.1c0.7,0.1,0,0-0.3-0.1
							c-1.4-0.2-2.8-0.6-4.1-0.9c-0.7-0.2-1.5-0.5-2.2-0.7c-0.8-0.3-1.1-0.4-1.5-0.6c-2.2-0.9-4.9-0.7-6.2,1.6
							c-1,1.9-0.7,5.2,1.6,6.2c6.2,2.7,12.9,4.3,19.7,3.7c6.9-0.6,13.3-2.9,19.2-6.4c2-1.2,2.9-4.1,1.6-6.2
							C375.2,425.4,372.6,424.6,370.4,425.9L370.4,425.9z"/>
					</g>
				</g>
			</g>
		</g>
	</g>
	<g>
		<path class="st0" d="M705.2,699.2H204.1c-0.8,0-1.5-0.7-1.5-1.5s0.7-1.5,1.5-1.5h501.1c0.8,0,1.5,0.7,1.5,1.5
			S706.1,699.2,705.2,699.2z"/>
	</g>
	<g>
		<path class="st0" d="M666.2,639.4h-92.1c-0.8,0-1.5-0.7-1.5-1.5s0.7-1.5,1.5-1.5h92.1c0.8,0,1.5,0.7,1.5,1.5
			S667.1,639.4,666.2,639.4z"/>
	</g>
	<g>
		<path class="st0" d="M630.2,669.6h-71.1c-0.8,0-1.5-0.7-1.5-1.5s0.7-1.5,1.5-1.5h71.1c0.8,0,1.5,0.7,1.5,1.5
			S631,669.6,630.2,669.6z"/>
	</g>
	<g>
		<path class="st0" d="M640.8,524c-22.9,0-44.9-5.2-65.9-15.5c-33.9-16.7-56.8-43.2-70.1-62.4c-5.9-8.6-3.8-20.5,4.9-26.4
			c8.6-5.9,20.5-3.8,26.4,4.9c10.7,15.5,28.9,36.8,55.5,49.8c25,12.3,52.3,14.8,81,7.3c10.2-2.6,20.5,3.5,23.2,13.6
			c2.6,10.2-3.5,20.5-13.6,23.2C668.2,522.1,654.3,524,640.8,524z"/>
	</g>
	<g>
		<circle cx="369.4" cy="200.5" r="15.9"/>
	</g>
	<g>
		<path d="M642.2,425.6c-0.8,0-1.4-0.6-1.5-1.4c-0.1-0.8,0.6-1.5,1.4-1.6l50.5-3.9c0.8-0.1,1.5,0.6,1.6,1.4c0.1,0.8-0.6,1.5-1.4,1.6
			l-50.5,3.9C642.3,425.6,642.2,425.6,642.2,425.6z"/>
	</g>
	<g>
		<path d="M642.2,442.6c-0.8,0-1.4-0.6-1.5-1.4c-0.1-0.8,0.6-1.5,1.4-1.6l50.5-3.9c0.8-0.1,1.5,0.6,1.6,1.4c0.1,0.8-0.6,1.5-1.4,1.6
			l-50.5,3.9C642.3,442.6,642.2,442.6,642.2,442.6z"/>
	</g>
	<g>
		<path d="M642.2,458.8c-0.8,0-1.4-0.6-1.5-1.4c-0.1-0.8,0.6-1.5,1.4-1.6l50.5-3.9c0.8-0.1,1.5,0.6,1.6,1.4c0.1,0.8-0.6,1.5-1.4,1.6
			l-50.5,3.9C642.3,458.8,642.2,458.8,642.2,458.8z"/>
	</g>
	<g>
		<path d="M642.2,477.9c-0.8,0-1.4-0.6-1.5-1.4c-0.1-0.8,0.6-1.5,1.4-1.6l50.5-3.9c0.8-0.1,1.5,0.6,1.6,1.4c0.1,0.8-0.6,1.5-1.4,1.6
			l-50.5,3.9C642.3,477.9,642.2,477.9,642.2,477.9z"/>
	</g>
	<g>
		<polygon class="st1" points="207.9,458.1 659.2,422.7 662.9,474.8 212.5,510.2 		"/>
		<path d="M211.1,511.8l-4.9-55.1l454.4-35.6l3.9,55.1l-1.5,0.1L211.1,511.8z M209.5,459.5l4.4,49.1l447.4-35.1l-3.4-49.1
			L209.5,459.5z"/>
	</g>
	<g>
		<g>
			<path d="M696,494.8c-2.9-10.1-13.5-15.9-23.6-13c-1.7,0.5-8.9,2.4-19.1,3.4v38.2c15-1.1,26.1-4,29.7-5
				C693.1,515.5,699,504.9,696,494.8z"/>
		</g>
	</g>
	<g>
		<g>
			<path d="M102.5,534.7c1.3-10.4,10.8-17.9,21.2-16.6c1.7,0.2,9.2,1,19.4,0.3l6.1,37.7c-15,1.4-26.4,0.3-30.1-0.2
				C108.6,554.7,101.2,545.2,102.5,534.7z"/>
		</g>
	</g>
	<g>
		<g>
			<path d="M321.2,616.5l1.3,7.1c1.1,5.9-2,11.8-7.4,14.3c-9,4.1-21.3,13.4-21.6,33.5c-0.1,4,1.4,7.2,5.3,7.2h89.6l-20.5-64.5
				c-0.7-1.8-2.4-3-4.3-3h-37.9C322.8,611.1,320.7,613.7,321.2,616.5z"/>
		</g>
		<g>
			<path d="M406.1,696.5H294.5c-9.6,0-18.7-3.8-25.5-10.6l-5.1-5.1c-1.2-1.2-1.2-3.1,0-4.2c1.2-1.2,3.1-1.2,4.2,0l5.1,5.1
				c5.7,5.7,13.3,8.8,21.3,8.8h111.6c1.7,0,3,1.3,3,3S407.7,696.5,406.1,696.5z"/>
		</g>
		<g>
			<path d="M390.1,696.3c-1.3,0-2.4-0.8-2.8-2l-6.8-20.3c-0.5-1.6,0.3-3.3,1.9-3.8c1.6-0.5,3.3,0.3,3.8,1.9l6.8,20.3
				c0.5,1.6-0.3,3.3-1.9,3.8C390.7,696.3,390.4,696.3,390.1,696.3z"/>
		</g>
		<g>
			<path d="M296.5,696.3c-1.7,0-3-1.3-3-3v-22c0-1.7,1.3-3,3-3s3,1.3,3,3v22C299.5,694.9,298.1,696.3,296.5,696.3z"/>
		</g>
	</g>
	<g>
		<g>
			<path d="M462,583.6l6,4.1c4.9,3.4,6.9,9.7,4.8,15.3c-3.5,9.3-5.6,24.6,8.4,39c2.8,2.8,6.1,4.1,8.9,1.3l63.3-63.3l-60.1-31.2
				c-1.7-0.8-3.8-0.5-5.2,0.9l-26.8,26.8C459.3,578.6,459.6,582,462,583.6z"/>
		</g>
		<g>
			<path d="M474.1,669.6h-7.2c-1.7,0-3-1.3-3-3s1.3-3,3-3h7.2c8,0,15.6-3.1,21.3-8.8l78.9-78.9c1.2-1.2,3.1-1.2,4.2,0
				c1.2,1.2,1.2,3.1,0,4.2L499.7,659C492.8,665.8,483.8,669.6,474.1,669.6z"/>
		</g>
		<g>
			<path d="M565,592.2c-0.5,0-0.9-0.1-1.3-0.3l-19.2-9.6c-1.5-0.7-2.1-2.5-1.3-4c0.7-1.5,2.5-2.1,4-1.3l19.2,9.6
				c1.5,0.7,2.1,2.5,1.3,4C567.2,591.6,566.1,592.2,565,592.2z"/>
		</g>
		<g>
			<path d="M498.8,658.3c-0.8,0-1.5-0.3-2.1-0.9l-15.6-15.6c-1.2-1.2-1.2-3.1,0-4.2c1.2-1.2,3.1-1.2,4.2,0l15.6,15.6
				c1.2,1.2,1.2,3.1,0,4.2C500.3,658,499.6,658.3,498.8,658.3z"/>
		</g>
	</g>
</g>
</svg>
