<svg width="167" height="142" viewBox="0 0 167 142" fill="none" xmlns="http://www.w3.org/2000/svg">
<path d="M25.4954 110.041L20.1567 130H17.8665L13.8473 116.638C13.6957 116.173 13.4783 115.425 13.1951 114.393C12.9727 113.504 12.8514 112.963 12.8311 112.771C12.6289 113.984 12.3104 115.298 11.8756 116.714L7.97776 130H5.6724L0.364004 110.041H2.82103L5.97573 122.371C6.42063 124.11 6.73913 125.678 6.93124 127.073C7.17391 125.394 7.53792 123.761 8.02326 122.174L11.6026 110.041H14.0597L17.8059 122.295C18.271 123.772 18.64 125.364 18.913 127.073C19.0748 125.819 19.4034 124.242 19.8989 122.341L23.0384 110.041H25.4954ZM32.4349 112.073V119.702H35.6199C37.2478 119.702 38.446 119.383 39.2144 118.746C39.9829 118.099 40.3671 117.118 40.3671 115.804C40.3671 114.489 39.9778 113.539 39.1993 112.953C38.4207 112.366 37.172 112.073 35.4531 112.073H32.4349ZM32.4349 121.704V130H30.1143V110.041H35.5896C38.0264 110.041 39.8312 110.511 41.0041 111.451C42.177 112.381 42.7635 113.792 42.7635 115.683C42.7635 118.332 41.4288 120.116 38.7594 121.036L44.174 130H41.4288L36.5906 121.704H32.4349ZM51.22 130H48.8995V110.041H51.22V130ZM64.335 112.103V130H62.0145V112.103H55.6899V110.041H70.6596V112.103H64.335ZM86.2785 127.922V130H75.1612V110.041H86.2785V112.103H77.4817V118.534H85.7477V120.581H77.4817V127.922H86.2785ZM93.5677 127.589C91.9701 125.779 91.1713 123.246 91.1713 119.99C91.1713 116.724 91.9701 114.201 93.5677 112.422C95.1754 110.632 97.4302 109.737 100.332 109.737C103.244 109.737 105.504 110.647 107.112 112.467C108.729 114.277 109.538 116.785 109.538 119.99C109.538 123.185 108.729 125.698 107.112 127.528C105.494 129.358 103.229 130.273 100.317 130.273C97.415 130.273 95.1653 129.378 93.5677 127.589ZM105.398 113.878C104.275 112.492 102.607 111.8 100.393 111.8C98.1885 111.8 96.5101 112.498 95.3574 113.893C94.2047 115.288 93.6284 117.331 93.6284 120.02C93.6284 122.7 94.2047 124.742 95.3574 126.148C96.5101 127.543 98.1885 128.241 100.393 128.241C102.597 128.241 104.26 127.548 105.383 126.163C106.515 124.768 107.081 122.72 107.081 120.02C107.081 117.31 106.52 115.263 105.398 113.878ZM120.657 110.041C125.642 110.041 128.135 111.982 128.135 115.865C128.135 117.877 127.442 119.429 126.057 120.521C124.682 121.613 122.715 122.159 120.157 122.159H117.806V130H115.485V110.041H120.657ZM117.806 112.058V120.157H119.899C121.941 120.157 123.428 119.828 124.358 119.171C125.278 118.504 125.738 117.472 125.738 116.077C125.738 114.671 125.303 113.65 124.434 113.013C123.564 112.376 122.22 112.058 120.399 112.058H117.806ZM136.152 130H133.831V110.041H136.152V130ZM146.006 121.567H152.452L150.131 115.379C149.818 114.53 149.509 113.569 149.206 112.498C149.024 113.327 148.741 114.287 148.357 115.379L146.006 121.567ZM158.063 130H155.667L153.18 123.66H145.187L142.73 130H140.379L148.266 109.965H150.222L158.063 130Z" fill="url(#paint0_linear_505_1008)"/>
<path d="M25.4954 110.041L20.1567 130H17.8665L13.8473 116.638C13.6957 116.173 13.4783 115.425 13.1951 114.393C12.9727 113.504 12.8514 112.963 12.8311 112.771C12.6289 113.984 12.3104 115.298 11.8756 116.714L7.97776 130H5.6724L0.364004 110.041H2.82103L5.97573 122.371C6.42063 124.11 6.73913 125.678 6.93124 127.073C7.17391 125.394 7.53792 123.761 8.02326 122.174L11.6026 110.041H14.0597L17.8059 122.295C18.271 123.772 18.64 125.364 18.913 127.073C19.0748 125.819 19.4034 124.242 19.8989 122.341L23.0384 110.041H25.4954ZM32.4349 112.073V119.702H35.6199C37.2478 119.702 38.446 119.383 39.2144 118.746C39.9829 118.099 40.3671 117.118 40.3671 115.804C40.3671 114.489 39.9778 113.539 39.1993 112.953C38.4207 112.366 37.172 112.073 35.4531 112.073H32.4349ZM32.4349 121.704V130H30.1143V110.041H35.5896C38.0264 110.041 39.8312 110.511 41.0041 111.451C42.177 112.381 42.7635 113.792 42.7635 115.683C42.7635 118.332 41.4288 120.116 38.7594 121.036L44.174 130H41.4288L36.5906 121.704H32.4349ZM51.22 130H48.8995V110.041H51.22V130ZM64.335 112.103V130H62.0145V112.103H55.6899V110.041H70.6596V112.103H64.335ZM86.2785 127.922V130H75.1612V110.041H86.2785V112.103H77.4817V118.534H85.7477V120.581H77.4817V127.922H86.2785ZM93.5677 127.589C91.9701 125.779 91.1713 123.246 91.1713 119.99C91.1713 116.724 91.9701 114.201 93.5677 112.422C95.1754 110.632 97.4302 109.737 100.332 109.737C103.244 109.737 105.504 110.647 107.112 112.467C108.729 114.277 109.538 116.785 109.538 119.99C109.538 123.185 108.729 125.698 107.112 127.528C105.494 129.358 103.229 130.273 100.317 130.273C97.415 130.273 95.1653 129.378 93.5677 127.589ZM105.398 113.878C104.275 112.492 102.607 111.8 100.393 111.8C98.1885 111.8 96.5101 112.498 95.3574 113.893C94.2047 115.288 93.6284 117.331 93.6284 120.02C93.6284 122.7 94.2047 124.742 95.3574 126.148C96.5101 127.543 98.1885 128.241 100.393 128.241C102.597 128.241 104.26 127.548 105.383 126.163C106.515 124.768 107.081 122.72 107.081 120.02C107.081 117.31 106.52 115.263 105.398 113.878ZM120.657 110.041C125.642 110.041 128.135 111.982 128.135 115.865C128.135 117.877 127.442 119.429 126.057 120.521C124.682 121.613 122.715 122.159 120.157 122.159H117.806V130H115.485V110.041H120.657ZM117.806 112.058V120.157H119.899C121.941 120.157 123.428 119.828 124.358 119.171C125.278 118.504 125.738 117.472 125.738 116.077C125.738 114.671 125.303 113.65 124.434 113.013C123.564 112.376 122.22 112.058 120.399 112.058H117.806ZM136.152 130H133.831V110.041H136.152V130ZM146.006 121.567H152.452L150.131 115.379C149.818 114.53 149.509 113.569 149.206 112.498C149.024 113.327 148.741 114.287 148.357 115.379L146.006 121.567ZM158.063 130H155.667L153.18 123.66H145.187L142.73 130H140.379L148.266 109.965H150.222L158.063 130Z" fill="url(#paint1_linear_505_1008)"/>
<line x1="31.3772" y1="31.036" x2="23.2534" y2="18.7212" stroke="#E15CBF" stroke-width="2"/>
<line x1="31.3772" y1="31.036" x2="23.2534" y2="18.7212" stroke="#E15CBF" stroke-width="2"/>
<line x1="33.9112" y1="17.5816" x2="24.0911" y2="17.5339" stroke="#E15CBF" stroke-width="2"/>
<line x1="29.3481" y1="8.88394" x2="20.7947" y2="4.05951" stroke="#E15CBF" stroke-width="2"/>
<line x1="31.5743" y1="30.4347" x2="32.3092" y2="47.6238" stroke="#E15CBF" stroke-width="2"/>
<line x1="30.7909" y1="47.5277" x2="43.8645" y2="51.6829" stroke="#E15CBF" stroke-width="2"/>
<path d="M140.439 22.1886L141.857 28.3833" stroke="#E15CBF" stroke-width="2"/>
<line x1="134.523" y1="42.2412" x2="130.981" y2="32.0119" stroke="#E15CBF" stroke-width="2"/>
<line x1="86.9945" y1="41.6434" x2="97.5575" y2="57.2434" stroke="#E15CBF" stroke-width="2"/>
<line x1="95.8825" y1="54.3459" x2="113.89" y2="53.615" stroke="#E15CBF" stroke-width="2"/>
<line x1="109.628" y1="67.4294" x2="112.961" y2="55.1702" stroke="#E15CBF" stroke-width="2"/>
<line x1="112.167" y1="56.1141" x2="119.919" y2="44.4466" stroke="#E15CBF" stroke-width="2"/>
<line x1="118.262" y1="43.035" x2="130.521" y2="46.3679" stroke="#E15CBF" stroke-width="2"/>
<line x1="22.854" y1="54.9951" x2="34.271" y2="63.2341" stroke="#E15CBF" stroke-width="2"/>
<line x1="34.6769" y1="63.067" x2="37.0604" y2="77.8089" stroke="#E15CBF" stroke-width="2"/>
<line x1="36.9218" y1="79.4285" x2="51.8419" y2="80.0587" stroke="#E15CBF" stroke-width="2"/>
<line x1="70.8132" y1="32.5639" x2="66.6461" y2="48.0925" stroke="#E15CBF" stroke-width="2"/>
<line x1="69.7354" y1="31.311" x2="83.655" y2="29.7419" stroke="#E15CBF" stroke-width="2"/>
<line x1="77.0907" y1="41.7129" x2="82.8746" y2="30.284" stroke="#E15CBF" stroke-width="2"/>
<line x1="69.3866" y1="59.1826" x2="85.7811" y2="53.5337" stroke="#E15CBF" stroke-width="2"/>
<line x1="44.6559" y1="51.9721" x2="46.3461" y2="60.964" stroke="#E15CBF" stroke-width="2"/>
<line x1="70.1907" y1="46.1248" x2="86.5216" y2="53.5692" stroke="#E15CBF" stroke-width="2"/>
<line x1="63.0496" y1="75.9484" x2="67.9993" y2="67.7888" stroke="#E15CBF" stroke-width="2"/>
<line x1="113.952" y1="80.8767" x2="122.171" y2="73.5514" stroke="#E15CBF" stroke-width="2"/>
<line x1="58.2087" y1="66.8828" x2="63.1545" y2="59.5416" stroke="#E15CBF" stroke-width="2"/>
<line x1="45.8861" y1="68.0159" x2="60.6202" y2="67.2691" stroke="#E15CBF" stroke-width="2"/>
<line x1="120.544" y1="63.7594" x2="128.767" y2="55.6157" stroke="#E15CBF" stroke-width="2"/>
<line x1="69.0823" y1="31.6608" x2="77.3133" y2="21.8805" stroke="#E15CBF" stroke-width="2"/>
<circle cx="22.0445" cy="17.7516" r="6.13759" transform="rotate(0.278039 22.0445 17.7516)" fill="#E15CBF"/>
<circle cx="22.0445" cy="17.7516" r="6.13759" transform="rotate(0.278039 22.0445 17.7516)" fill="#E15CBF"/>
<circle cx="52.0247" cy="79.2737" r="6.13759" transform="rotate(0.278039 52.0247 79.2737)" fill="#E15CBF"/>
<circle cx="66.9058" cy="48.2483" r="6.13759" transform="rotate(0.278039 66.9058 48.2483)" fill="#E15CBF"/>
<circle cx="88.2142" cy="41.8049" r="6.13759" transform="rotate(0.278039 88.2142 41.8049)" fill="#E15CBF"/>
<circle cx="96.3301" cy="55.7563" r="6.13759" transform="rotate(0.278039 96.3301 55.7563)" fill="#E15CBF"/>
<circle cx="108.55" cy="67.2726" r="6.13759" transform="rotate(0.278039 108.55 67.2726)" fill="#E15CBF"/>
<circle cx="69.7164" cy="59.3097" r="1.63669" transform="rotate(0.278039 69.7164 59.3097)" fill="#E15CBF"/>
<circle cx="21.0831" cy="47.2076" r="1.22752" transform="rotate(0.278039 21.0831 47.2076)" fill="#E15CBF"/>
<circle cx="21.0831" cy="47.2076" r="1.22752" transform="rotate(0.278039 21.0831 47.2076)" fill="#E15CBF"/>
<circle cx="21.0831" cy="47.2076" r="1.22752" transform="rotate(0.278039 21.0831 47.2076)" fill="#E15CBF"/>
<circle cx="21.0831" cy="47.2076" r="1.22752" transform="rotate(0.278039 21.0831 47.2076)" fill="#E15CBF"/>
<circle cx="35.1735" cy="10.4501" r="1.22752" transform="rotate(0.278039 35.1735 10.4501)" fill="#E15CBF"/>
<circle cx="46.1908" cy="61.1527" r="1.63674" transform="rotate(0.278039 46.1908 61.1527)" fill="#E15CBF"/>
<circle cx="43.8058" cy="86.5989" r="1.22752" transform="rotate(0.278039 43.8058 86.5989)" fill="#E15CBF"/>
<circle cx="69.4086" cy="38.4403" r="1.22752" transform="rotate(0.278039 69.4086 38.4403)" fill="#E15CBF"/>
<circle cx="95.5594" cy="45.9323" r="1.22752" transform="rotate(0.278039 95.5594 45.9323)" fill="#E15CBF"/>
<circle cx="89.7518" cy="62.2713" r="1.22752" transform="rotate(0.278039 89.7518 62.2713)" fill="#E15CBF"/>
<circle cx="128.201" cy="64.9129" r="1.22752" transform="rotate(0.278039 128.201 64.9129)" fill="#E15CBF"/>
<circle cx="120.9" cy="51.7838" r="1.22752" transform="rotate(0.278039 120.9 51.7838)" fill="#E15CBF"/>
<circle cx="28.4879" cy="39.06" r="1.22752" transform="rotate(0.278039 28.4879 39.06)" fill="#E15CBF"/>
<circle cx="125.234" cy="38.2335" r="1.22752" transform="rotate(0.278039 125.234 38.2335)" fill="#E15CBF"/>
<circle cx="36.4766" cy="79.1981" r="6.13759" transform="rotate(0.278039 36.4766 79.1981)" fill="#E15CBF"/>
<circle cx="31.8006" cy="30.8925" r="6.13759" transform="rotate(0.278039 31.8006 30.8925)" fill="#E15CBF"/>
<circle cx="34.105" cy="62.0011" r="6.13759" transform="rotate(0.278039 34.105 62.0011)" fill="#E15CBF"/>
<circle cx="33.9082" cy="18.2182" r="4.09173" transform="rotate(0.278039 33.9082 18.2182)" fill="#E15CBF"/>
<circle cx="58.22" cy="67.4375" r="4.09173" transform="rotate(0.278039 58.22 67.4375)" fill="#E15CBF"/>
<circle cx="32.1326" cy="46.852" r="4.09173" transform="rotate(0.278039 32.1326 46.852)" fill="#E15CBF"/>
<circle cx="20.7156" cy="38.6132" r="4.09173" transform="rotate(0.278039 20.7156 38.6132)" fill="#E15CBF"/>
<circle cx="23.0914" cy="54.9918" r="4.09173" transform="rotate(0.278039 23.0914 54.9918)" fill="#E15CBF"/>
<circle cx="43.5652" cy="51.8177" r="4.09173" transform="rotate(0.278039 43.5652 51.8177)" fill="#E15CBF"/>
<circle cx="68.0398" cy="67.485" r="4.09173" transform="rotate(0.278039 68.0398 67.485)" fill="#E15CBF"/>
<circle cx="96.6739" cy="69.2608" r="4.09173" transform="rotate(0.278039 96.6739 69.2608)" fill="#E15CBF"/>
<circle cx="113.934" cy="53.7958" r="4.09173" transform="rotate(0.278039 113.934 53.7958)" fill="#E15CBF"/>
<circle cx="119.619" cy="62.8254" r="4.09173" transform="rotate(0.278039 119.619 62.8254)" fill="#E15CBF"/>
<circle cx="112.167" cy="80.793" r="4.09173" transform="rotate(0.278039 112.167 80.793)" fill="#E15CBF"/>
<circle cx="122.018" cy="74.294" r="4.09173" transform="rotate(0.278039 122.018 74.294)" fill="#E15CBF"/>
<circle cx="71.492" cy="30.676" r="4.09173" transform="rotate(0.278039 71.492 30.676)" fill="#E15CBF"/>
<circle cx="83.771" cy="29.9172" r="4.09173" transform="rotate(0.278039 83.771 29.9172)" fill="#E15CBF"/>
<circle cx="132.029" cy="35.0615" r="4.09173" transform="rotate(0.278039 132.029 35.0615)" fill="#E15CBF"/>
<circle cx="119.112" cy="45.1115" r="4.09173" transform="rotate(0.278039 119.112 45.1115)" fill="#E15CBF"/>
<circle cx="140.112" cy="21.1115" r="4.09173" transform="rotate(0.278039 140.112 21.1115)" fill="#E15CBF"/>
<circle cx="28.6345" cy="8.78158" r="2.86421" transform="rotate(0.278039 28.6345 8.78158)" fill="#E15CBF"/>
<circle cx="21.9887" cy="29.2082" r="2.86421" transform="rotate(0.278039 21.9887 29.2082)" fill="#E15CBF"/>
<circle cx="40.7587" cy="39.9379" r="2.86421" transform="rotate(0.278039 40.7587 39.9379)" fill="#E15CBF"/>
<circle cx="135.666" cy="44.4903" r="2.86421" transform="rotate(0.278039 135.666 44.4903)" fill="#E15CBF"/>
<circle cx="20.0966" cy="4.45391" r="2.86421" transform="rotate(0.278039 20.0966 4.45391)" fill="#E15CBF"/>
<circle cx="26.684" cy="73.422" r="2.86421" transform="rotate(0.278039 26.684 73.422)" fill="#E15CBF"/>
<circle cx="62.7624" cy="58.8669" r="2.86421" transform="rotate(0.278039 62.7624 58.8669)" fill="#E15CBF"/>
<circle cx="77.5798" cy="40.9349" r="2.86421" transform="rotate(0.278039 77.5798 40.9349)" fill="#E15CBF"/>
<circle cx="78.4975" cy="20.4806" r="2.86421" transform="rotate(0.278039 78.4975 20.4806)" fill="#E15CBF"/>
<circle cx="86.5219" cy="53.2537" r="2.86421" transform="rotate(0.278039 86.5219 53.2537)" fill="#E15CBF"/>
<circle cx="129.878" cy="45.8781" r="2.86421" transform="rotate(0.278039 129.878 45.8781)" fill="#E15CBF"/>
<circle cx="103.592" cy="77.0687" r="2.86421" transform="rotate(0.278039 103.592 77.0687)" fill="#E15CBF"/>
<circle cx="62.6791" cy="76.0518" r="2.86421" transform="rotate(0.278039 62.6791 76.0518)" fill="#E15CBF"/>
<circle cx="45.5336" cy="67.7852" r="2.86421" transform="rotate(0.278039 45.5336 67.7852)" fill="#E15CBF"/>
<circle cx="141.858" cy="31.5585" r="4.88316" transform="rotate(-0.928196 141.858 31.5585)" fill="#E15CBF"/>
<circle cx="131.167" cy="55.1673" r="6.13759" transform="rotate(0.278039 131.167 55.1673)" fill="#E15CBF"/>
<defs>
<linearGradient id="paint0_linear_505_1008" x1="-7.88412" y1="133" x2="167.051" y2="129.917" gradientUnits="userSpaceOnUse">
<stop stop-color="#F04495"/>
<stop offset="0.377734" stop-opacity="0"/>
</linearGradient>
<linearGradient id="paint1_linear_505_1008" x1="-7.88412" y1="133" x2="167.006" y2="131.973" gradientUnits="userSpaceOnUse">
<stop stop-color="#E15CBF"/>
<stop offset="1" stop-color="#E6A386"/>
</linearGradient>
</defs>
</svg>
