<svg width="132" height="88" viewBox="0 0 132 88" fill="none" xmlns="http://www.w3.org/2000/svg">
<line x1="16.3772" y1="31.036" x2="8.25339" y2="18.7212" stroke="#E15CBF" stroke-width="2"/>
<line x1="16.3772" y1="31.036" x2="8.25339" y2="18.7212" stroke="#E15CBF" stroke-width="2"/>
<line x1="18.9112" y1="17.5816" x2="9.09114" y2="17.5339" stroke="#E15CBF" stroke-width="2"/>
<line x1="14.3481" y1="8.88394" x2="5.79471" y2="4.05951" stroke="#E15CBF" stroke-width="2"/>
<line x1="16.5743" y1="30.4347" x2="17.3092" y2="47.6238" stroke="#E15CBF" stroke-width="2"/>
<line x1="15.7909" y1="47.5277" x2="28.8645" y2="51.6829" stroke="#E15CBF" stroke-width="2"/>
<path d="M125.439 22.1886L126.857 28.3833" stroke="#E15CBF" stroke-width="2"/>
<line x1="119.523" y1="42.2412" x2="115.981" y2="32.0119" stroke="#E15CBF" stroke-width="2"/>
<line x1="71.9945" y1="41.6434" x2="82.5575" y2="57.2434" stroke="#E15CBF" stroke-width="2"/>
<line x1="80.8825" y1="54.3459" x2="98.8899" y2="53.615" stroke="#E15CBF" stroke-width="2"/>
<line x1="94.6283" y1="67.4294" x2="97.9612" y2="55.1702" stroke="#E15CBF" stroke-width="2"/>
<line x1="97.1671" y1="56.1141" x2="104.919" y2="44.4466" stroke="#E15CBF" stroke-width="2"/>
<line x1="103.262" y1="43.035" x2="115.521" y2="46.3679" stroke="#E15CBF" stroke-width="2"/>
<line x1="7.85398" y1="54.9951" x2="19.271" y2="63.2341" stroke="#E15CBF" stroke-width="2"/>
<line x1="19.6769" y1="63.067" x2="22.0604" y2="77.8089" stroke="#E15CBF" stroke-width="2"/>
<line x1="21.9218" y1="79.4285" x2="36.8419" y2="80.0587" stroke="#E15CBF" stroke-width="2"/>
<line x1="55.8132" y1="32.5639" x2="51.6461" y2="48.0925" stroke="#E15CBF" stroke-width="2"/>
<line x1="54.7354" y1="31.311" x2="68.655" y2="29.7419" stroke="#E15CBF" stroke-width="2"/>
<line x1="62.0907" y1="41.7129" x2="67.8746" y2="30.284" stroke="#E15CBF" stroke-width="2"/>
<line x1="54.3866" y1="59.1826" x2="70.7811" y2="53.5337" stroke="#E15CBF" stroke-width="2"/>
<line x1="29.6559" y1="51.9721" x2="31.3461" y2="60.964" stroke="#E15CBF" stroke-width="2"/>
<line x1="55.1907" y1="46.1248" x2="71.5216" y2="53.5692" stroke="#E15CBF" stroke-width="2"/>
<line x1="48.0496" y1="75.9484" x2="52.9993" y2="67.7888" stroke="#E15CBF" stroke-width="2"/>
<line x1="98.9521" y1="80.8767" x2="107.171" y2="73.5514" stroke="#E15CBF" stroke-width="2"/>
<line x1="43.2087" y1="66.8828" x2="48.1545" y2="59.5416" stroke="#E15CBF" stroke-width="2"/>
<line x1="30.8861" y1="68.0159" x2="45.6202" y2="67.2691" stroke="#E15CBF" stroke-width="2"/>
<line x1="105.544" y1="63.7594" x2="113.767" y2="55.6157" stroke="#E15CBF" stroke-width="2"/>
<line x1="54.0823" y1="31.6608" x2="62.3133" y2="21.8805" stroke="#E15CBF" stroke-width="2"/>
<circle cx="7.0445" cy="17.7516" r="6.13759" transform="rotate(0.278039 7.0445 17.7516)" fill="#E15CBF"/>
<circle cx="7.0445" cy="17.7516" r="6.13759" transform="rotate(0.278039 7.0445 17.7516)" fill="#E15CBF"/>
<circle cx="37.0247" cy="79.2737" r="6.13759" transform="rotate(0.278039 37.0247 79.2737)" fill="#E15CBF"/>
<circle cx="51.9058" cy="48.2483" r="6.13759" transform="rotate(0.278039 51.9058 48.2483)" fill="#E15CBF"/>
<circle cx="73.2142" cy="41.8049" r="6.13759" transform="rotate(0.278039 73.2142 41.8049)" fill="#E15CBF"/>
<circle cx="81.3301" cy="55.7563" r="6.13759" transform="rotate(0.278039 81.3301 55.7563)" fill="#E15CBF"/>
<circle cx="93.5496" cy="67.2726" r="6.13759" transform="rotate(0.278039 93.5496 67.2726)" fill="#E15CBF"/>
<circle cx="54.7164" cy="59.3097" r="1.63669" transform="rotate(0.278039 54.7164 59.3097)" fill="#E15CBF"/>
<circle cx="6.08312" cy="47.2076" r="1.22752" transform="rotate(0.278039 6.08312 47.2076)" fill="#E15CBF"/>
<circle cx="6.08312" cy="47.2076" r="1.22752" transform="rotate(0.278039 6.08312 47.2076)" fill="#E15CBF"/>
<circle cx="6.08312" cy="47.2076" r="1.22752" transform="rotate(0.278039 6.08312 47.2076)" fill="#E15CBF"/>
<circle cx="6.08312" cy="47.2076" r="1.22752" transform="rotate(0.278039 6.08312 47.2076)" fill="#E15CBF"/>
<circle cx="20.1735" cy="10.4501" r="1.22752" transform="rotate(0.278039 20.1735 10.4501)" fill="#E15CBF"/>
<circle cx="31.1908" cy="61.1527" r="1.63674" transform="rotate(0.278039 31.1908 61.1527)" fill="#E15CBF"/>
<circle cx="28.8058" cy="86.5989" r="1.22752" transform="rotate(0.278039 28.8058 86.5989)" fill="#E15CBF"/>
<circle cx="54.4086" cy="38.4403" r="1.22752" transform="rotate(0.278039 54.4086 38.4403)" fill="#E15CBF"/>
<circle cx="80.5594" cy="45.9323" r="1.22752" transform="rotate(0.278039 80.5594 45.9323)" fill="#E15CBF"/>
<circle cx="74.7518" cy="62.2713" r="1.22752" transform="rotate(0.278039 74.7518 62.2713)" fill="#E15CBF"/>
<circle cx="113.201" cy="64.9129" r="1.22752" transform="rotate(0.278039 113.201 64.9129)" fill="#E15CBF"/>
<circle cx="105.9" cy="51.7838" r="1.22752" transform="rotate(0.278039 105.9 51.7838)" fill="#E15CBF"/>
<circle cx="13.4879" cy="39.06" r="1.22752" transform="rotate(0.278039 13.4879 39.06)" fill="#E15CBF"/>
<circle cx="110.234" cy="38.2335" r="1.22752" transform="rotate(0.278039 110.234 38.2335)" fill="#E15CBF"/>
<circle cx="21.4766" cy="79.1981" r="6.13759" transform="rotate(0.278039 21.4766 79.1981)" fill="#E15CBF"/>
<circle cx="16.8006" cy="30.8925" r="6.13759" transform="rotate(0.278039 16.8006 30.8925)" fill="#E15CBF"/>
<circle cx="19.105" cy="62.0011" r="6.13759" transform="rotate(0.278039 19.105 62.0011)" fill="#E15CBF"/>
<circle cx="18.9082" cy="18.2182" r="4.09173" transform="rotate(0.278039 18.9082 18.2182)" fill="#E15CBF"/>
<circle cx="43.22" cy="67.4375" r="4.09173" transform="rotate(0.278039 43.22 67.4375)" fill="#E15CBF"/>
<circle cx="17.1326" cy="46.852" r="4.09173" transform="rotate(0.278039 17.1326 46.852)" fill="#E15CBF"/>
<circle cx="5.71562" cy="38.6132" r="4.09173" transform="rotate(0.278039 5.71562 38.6132)" fill="#E15CBF"/>
<circle cx="8.09135" cy="54.9918" r="4.09173" transform="rotate(0.278039 8.09135 54.9918)" fill="#E15CBF"/>
<circle cx="28.5652" cy="51.8177" r="4.09173" transform="rotate(0.278039 28.5652 51.8177)" fill="#E15CBF"/>
<circle cx="53.0398" cy="67.485" r="4.09173" transform="rotate(0.278039 53.0398 67.485)" fill="#E15CBF"/>
<circle cx="81.6739" cy="69.2608" r="4.09173" transform="rotate(0.278039 81.6739 69.2608)" fill="#E15CBF"/>
<circle cx="98.9341" cy="53.7958" r="4.09173" transform="rotate(0.278039 98.9341 53.7958)" fill="#E15CBF"/>
<circle cx="104.619" cy="62.8254" r="4.09173" transform="rotate(0.278039 104.619 62.8254)" fill="#E15CBF"/>
<circle cx="97.1665" cy="80.793" r="4.09173" transform="rotate(0.278039 97.1665 80.793)" fill="#E15CBF"/>
<circle cx="107.018" cy="74.294" r="4.09173" transform="rotate(0.278039 107.018 74.294)" fill="#E15CBF"/>
<circle cx="56.492" cy="30.676" r="4.09173" transform="rotate(0.278039 56.492 30.676)" fill="#E15CBF"/>
<circle cx="68.771" cy="29.9172" r="4.09173" transform="rotate(0.278039 68.771 29.9172)" fill="#E15CBF"/>
<circle cx="117.029" cy="35.0615" r="4.09173" transform="rotate(0.278039 117.029 35.0615)" fill="#E15CBF"/>
<circle cx="104.112" cy="45.1115" r="4.09173" transform="rotate(0.278039 104.112 45.1115)" fill="#E15CBF"/>
<circle cx="125.112" cy="21.1115" r="4.09173" transform="rotate(0.278039 125.112 21.1115)" fill="#E15CBF"/>
<circle cx="13.6345" cy="8.78158" r="2.86421" transform="rotate(0.278039 13.6345 8.78158)" fill="#E15CBF"/>
<circle cx="6.9887" cy="29.2082" r="2.86421" transform="rotate(0.278039 6.9887 29.2082)" fill="#E15CBF"/>
<circle cx="25.7587" cy="39.9379" r="2.86421" transform="rotate(0.278039 25.7587 39.9379)" fill="#E15CBF"/>
<circle cx="120.666" cy="44.4903" r="2.86421" transform="rotate(0.278039 120.666 44.4903)" fill="#E15CBF"/>
<circle cx="5.09661" cy="4.45391" r="2.86421" transform="rotate(0.278039 5.09661 4.45391)" fill="#E15CBF"/>
<circle cx="11.684" cy="73.422" r="2.86421" transform="rotate(0.278039 11.684 73.422)" fill="#E15CBF"/>
<circle cx="47.7624" cy="58.8669" r="2.86421" transform="rotate(0.278039 47.7624 58.8669)" fill="#E15CBF"/>
<circle cx="62.5798" cy="40.9349" r="2.86421" transform="rotate(0.278039 62.5798 40.9349)" fill="#E15CBF"/>
<circle cx="63.4975" cy="20.4806" r="2.86421" transform="rotate(0.278039 63.4975 20.4806)" fill="#E15CBF"/>
<circle cx="71.5219" cy="53.2537" r="2.86421" transform="rotate(0.278039 71.5219 53.2537)" fill="#E15CBF"/>
<circle cx="114.878" cy="45.8781" r="2.86421" transform="rotate(0.278039 114.878 45.8781)" fill="#E15CBF"/>
<circle cx="88.592" cy="77.0687" r="2.86421" transform="rotate(0.278039 88.592 77.0687)" fill="#E15CBF"/>
<circle cx="47.6791" cy="76.0518" r="2.86421" transform="rotate(0.278039 47.6791 76.0518)" fill="#E15CBF"/>
<circle cx="30.5336" cy="67.7852" r="2.86421" transform="rotate(0.278039 30.5336 67.7852)" fill="#E15CBF"/>
<circle cx="126.858" cy="31.5585" r="4.88316" transform="rotate(-0.928196 126.858 31.5585)" fill="#E15CBF"/>
<circle cx="116.167" cy="55.1673" r="6.13759" transform="rotate(0.278039 116.167 55.1673)" fill="#E15CBF"/>
</svg>
